<?xml version='1.0' encoding='utf-8'?>
<svg xmlns="http://www.w3.org/2000/svg" version="1.1" baseProfile="full" xml:space="preserve" width="1800px" height="680px" viewBox="0 0 1800 680">

<rect style="opacity:1.0;fill:#FFFFFF;stroke:none" width="1800.0" height="680.0" x="0.0" y="0.0"> </rect>
<path class="bond-0 atom-0 atom-1" d="M 1429.8,386.0 L 1389.6,352.3" style="fill:none;fill-rule:evenodd;stroke:#727272;stroke-width:4.4px;stroke-linecap:butt;stroke-linejoin:miter;stroke-opacity:1" />
<path class="bond-0 atom-0 atom-1" d="M 1425.0,391.6 L 1384.9,357.9" style="fill:none;fill-rule:evenodd;stroke:#727272;stroke-width:4.4px;stroke-linecap:butt;stroke-linejoin:miter;stroke-opacity:1" />
<path class="bond-0 atom-0 atom-1" d="M 1434.5,380.3 L 1394.3,346.6" style="fill:none;fill-rule:evenodd;stroke:#727272;stroke-width:4.4px;stroke-linecap:butt;stroke-linejoin:miter;stroke-opacity:1" />
<path class="bond-1 atom-1 atom-2" d="M 1389.6,352.3 L 1349.4,318.5" style="fill:none;fill-rule:evenodd;stroke:#727272;stroke-width:4.4px;stroke-linecap:butt;stroke-linejoin:miter;stroke-opacity:1" />
<path class="bond-2 atom-2 atom-3" d="M 1349.4,318.5 L 1300.2,336.5" style="fill:none;fill-rule:evenodd;stroke:#727272;stroke-width:4.4px;stroke-linecap:butt;stroke-linejoin:miter;stroke-opacity:1" />
<path class="bond-3 atom-3 atom-4" d="M 1300.2,336.5 L 1260.0,302.7" style="fill:none;fill-rule:evenodd;stroke:#727272;stroke-width:4.4px;stroke-linecap:butt;stroke-linejoin:miter;stroke-opacity:1" />
<path class="bond-4 atom-4 atom-5" d="M 1260.0,302.7 L 1210.7,320.7" style="fill:none;fill-rule:evenodd;stroke:#727272;stroke-width:4.4px;stroke-linecap:butt;stroke-linejoin:miter;stroke-opacity:1" />
<path class="bond-5 atom-5 atom-6" d="M 1210.7,320.7 L 1170.5,287.0" style="fill:none;fill-rule:evenodd;stroke:#727272;stroke-width:4.4px;stroke-linecap:butt;stroke-linejoin:miter;stroke-opacity:1" />
<path class="bond-6 atom-6 atom-7" d="M 1170.5,287.0 L 1121.3,304.9" style="fill:none;fill-rule:evenodd;stroke:#727272;stroke-width:4.4px;stroke-linecap:butt;stroke-linejoin:miter;stroke-opacity:1" />
<path class="bond-7 atom-7 atom-8" d="M 1121.3,304.9 L 1081.1,271.2" style="fill:none;fill-rule:evenodd;stroke:#727272;stroke-width:4.4px;stroke-linecap:butt;stroke-linejoin:miter;stroke-opacity:1" />
<path class="bond-8 atom-8 atom-9" d="M 1081.1,271.2 L 1031.8,289.1" style="fill:none;fill-rule:evenodd;stroke:#727272;stroke-width:4.4px;stroke-linecap:butt;stroke-linejoin:miter;stroke-opacity:1" />
<path class="bond-9 atom-9 atom-10" d="M 1031.8,289.1 L 991.6,255.4" style="fill:none;fill-rule:evenodd;stroke:#727272;stroke-width:4.4px;stroke-linecap:butt;stroke-linejoin:miter;stroke-opacity:1" />
<path class="bond-10 atom-10 atom-11" d="M 994.9,258.1 L 1000.9,223.8" style="fill:none;fill-rule:evenodd;stroke:#727272;stroke-width:4.4px;stroke-linecap:butt;stroke-linejoin:miter;stroke-opacity:1" />
<path class="bond-10 atom-10 atom-11" d="M 987.7,256.8 L 993.7,222.5" style="fill:none;fill-rule:evenodd;stroke:#727272;stroke-width:4.4px;stroke-linecap:butt;stroke-linejoin:miter;stroke-opacity:1" />
<path class="bond-11 atom-10 atom-12" d="M 991.6,255.4 L 959.7,267.0" style="fill:none;fill-rule:evenodd;stroke:#727272;stroke-width:4.4px;stroke-linecap:butt;stroke-linejoin:miter;stroke-opacity:1" />
<path class="bond-12 atom-12 atom-13" d="M 925.0,258.7 L 902.2,239.6" style="fill:none;fill-rule:evenodd;stroke:#727272;stroke-width:4.4px;stroke-linecap:butt;stroke-linejoin:miter;stroke-opacity:1" />
<path class="bond-13 atom-13 atom-14" d="M 902.2,239.6 L 870.2,251.2" style="fill:none;fill-rule:evenodd;stroke:#727272;stroke-width:4.4px;stroke-linecap:butt;stroke-linejoin:miter;stroke-opacity:1" />
<path class="bond-14 atom-14 atom-15" d="M 835.6,243.0 L 812.8,223.8" style="fill:none;fill-rule:evenodd;stroke:#727272;stroke-width:4.4px;stroke-linecap:butt;stroke-linejoin:miter;stroke-opacity:1" />
<path class="bond-15 atom-15 atom-16" d="M 812.8,223.8 L 763.5,241.7" style="fill:none;fill-rule:evenodd;stroke:#727272;stroke-width:4.4px;stroke-linecap:butt;stroke-linejoin:miter;stroke-opacity:1" />
<path class="bond-16 atom-16 atom-17" d="M 763.5,241.7 L 723.3,208.0" style="fill:none;fill-rule:evenodd;stroke:#727272;stroke-width:4.4px;stroke-linecap:butt;stroke-linejoin:miter;stroke-opacity:1" />
<path class="bond-17 atom-17 atom-18" d="M 723.3,208.0 L 674.0,225.9" style="fill:none;fill-rule:evenodd;stroke:#727272;stroke-width:4.4px;stroke-linecap:butt;stroke-linejoin:miter;stroke-opacity:1" />
<path class="bond-18 atom-18 atom-19" d="M 674.0,225.9 L 668.2,258.8" style="fill:none;fill-rule:evenodd;stroke:#727272;stroke-width:4.4px;stroke-linecap:butt;stroke-linejoin:miter;stroke-opacity:1" />
<path class="bond-19 atom-19 atom-20" d="M 650.3,282.9 L 615.6,295.5" style="fill:none;fill-rule:evenodd;stroke:#727272;stroke-width:4.4px;stroke-linecap:butt;stroke-linejoin:miter;stroke-opacity:1" />
<path class="bond-20 atom-20 atom-21" d="M 615.6,295.5 L 606.5,347.1" style="fill:none;fill-rule:evenodd;stroke:#727272;stroke-width:4.4px;stroke-linecap:butt;stroke-linejoin:miter;stroke-opacity:1" />
<path class="bond-21 atom-21 atom-22" d="M 606.5,347.1 L 557.2,365.1" style="fill:none;fill-rule:evenodd;stroke:#727272;stroke-width:4.4px;stroke-linecap:butt;stroke-linejoin:miter;stroke-opacity:1" />
<path class="bond-22 atom-22 atom-23" d="M 557.2,365.1 L 548.1,416.7" style="fill:none;fill-rule:evenodd;stroke:#727272;stroke-width:4.4px;stroke-linecap:butt;stroke-linejoin:miter;stroke-opacity:1" />
<path class="bond-23 atom-23 atom-24" d="M 544.1,418.1 L 568.6,438.7" style="fill:none;fill-rule:evenodd;stroke:#727272;stroke-width:4.4px;stroke-linecap:butt;stroke-linejoin:miter;stroke-opacity:1" />
<path class="bond-23 atom-23 atom-24" d="M 548.8,412.5 L 573.3,433.1" style="fill:none;fill-rule:evenodd;stroke:#727272;stroke-width:4.4px;stroke-linecap:butt;stroke-linejoin:miter;stroke-opacity:1" />
<path class="bond-24 atom-23 atom-25" d="M 548.1,416.7 L 516.2,428.3" style="fill:none;fill-rule:evenodd;stroke:#727272;stroke-width:4.4px;stroke-linecap:butt;stroke-linejoin:miter;stroke-opacity:1" />
<path class="bond-25 atom-25 atom-26" d="M 495.4,454.1 L 489.7,486.3" style="fill:none;fill-rule:evenodd;stroke:#727272;stroke-width:4.4px;stroke-linecap:butt;stroke-linejoin:miter;stroke-opacity:1" />
<path class="bond-26 atom-26 atom-27" d="M 489.7,486.3 L 440.4,504.2" style="fill:none;fill-rule:evenodd;stroke:#727272;stroke-width:4.4px;stroke-linecap:butt;stroke-linejoin:miter;stroke-opacity:1" />
<path class="bond-27 atom-26 atom-28" d="M 489.7,486.3 L 529.9,520.0" style="fill:none;fill-rule:evenodd;stroke:#727272;stroke-width:4.4px;stroke-linecap:butt;stroke-linejoin:miter;stroke-opacity:1" />
<path class="bond-28 atom-28 atom-29" d="M 529.9,520.0 L 520.8,571.6" style="fill:none;fill-rule:evenodd;stroke:#727272;stroke-width:4.4px;stroke-linecap:butt;stroke-linejoin:miter;stroke-opacity:1" />
<path class="bond-29 atom-29 atom-30" d="M 520.8,571.6 L 560.9,605.3" style="fill:none;fill-rule:evenodd;stroke:#727272;stroke-width:4.4px;stroke-linecap:butt;stroke-linejoin:miter;stroke-opacity:1" />
<path class="bond-30 atom-30 atom-31" d="M 560.9,605.3 L 551.8,657.0" style="fill:none;fill-rule:evenodd;stroke:#727272;stroke-width:4.4px;stroke-linecap:butt;stroke-linejoin:miter;stroke-opacity:1" />
<path class="bond-31 atom-18 atom-32" d="M 674.0,225.9 L 633.9,192.2" style="fill:none;fill-rule:evenodd;stroke:#727272;stroke-width:4.4px;stroke-linecap:butt;stroke-linejoin:miter;stroke-opacity:1" />
<path class="bond-32 atom-32 atom-33" d="M 637.1,194.9 L 643.2,160.6" style="fill:none;fill-rule:evenodd;stroke:#727272;stroke-width:4.4px;stroke-linecap:butt;stroke-linejoin:miter;stroke-opacity:1" />
<path class="bond-32 atom-32 atom-33" d="M 629.9,193.7 L 635.9,159.4" style="fill:none;fill-rule:evenodd;stroke:#727272;stroke-width:4.4px;stroke-linecap:butt;stroke-linejoin:miter;stroke-opacity:1" />
<path class="bond-33 atom-32 atom-34" d="M 633.9,192.2 L 599.2,204.8" style="fill:none;fill-rule:evenodd;stroke:#727272;stroke-width:4.4px;stroke-linecap:butt;stroke-linejoin:miter;stroke-opacity:1" />
<path class="bond-34 atom-34 atom-35" d="M 570.0,197.9 L 544.4,176.4" style="fill:none;fill-rule:evenodd;stroke:#727272;stroke-width:4.4px;stroke-linecap:butt;stroke-linejoin:miter;stroke-opacity:1" />
<path class="bond-35 atom-35 atom-36" d="M 544.4,176.4 L 553.5,124.8" style="fill:none;fill-rule:evenodd;stroke:#727272;stroke-width:4.4px;stroke-linecap:butt;stroke-linejoin:miter;stroke-opacity:1" />
<path class="bond-36 atom-36 atom-37" d="M 553.5,124.8 L 513.4,91.1" style="fill:none;fill-rule:evenodd;stroke:#727272;stroke-width:4.4px;stroke-linecap:butt;stroke-linejoin:miter;stroke-opacity:1" />
<path class="bond-37 atom-37 atom-38" d="M 513.4,91.1 L 519.2,58.1" style="fill:none;fill-rule:evenodd;stroke:#727272;stroke-width:4.4px;stroke-linecap:butt;stroke-linejoin:miter;stroke-opacity:1" />
<path class="bond-38 atom-35 atom-39" d="M 544.4,176.4 L 495.1,194.3" style="fill:none;fill-rule:evenodd;stroke:#727272;stroke-width:4.4px;stroke-linecap:butt;stroke-linejoin:miter;stroke-opacity:1" />
<path class="bond-39 atom-39 atom-40" d="M 495.1,194.3 L 455.0,160.6" style="fill:none;fill-rule:evenodd;stroke:#727272;stroke-width:4.4px;stroke-linecap:butt;stroke-linejoin:miter;stroke-opacity:1" />
<path class="bond-40 atom-40 atom-41" d="M 455.0,160.6 L 405.7,178.5" style="fill:none;fill-rule:evenodd;stroke:#727272;stroke-width:4.4px;stroke-linecap:butt;stroke-linejoin:miter;stroke-opacity:1" />
<path class="bond-41 atom-41 atom-42" d="M 405.7,178.5 L 365.5,144.8" style="fill:none;fill-rule:evenodd;stroke:#727272;stroke-width:4.4px;stroke-linecap:butt;stroke-linejoin:miter;stroke-opacity:1" />
<path d="M 1391.6,353.9 L 1389.6,352.3 L 1387.6,350.6" style="fill:none;stroke:#727272;stroke-width:4.4px;stroke-linecap:butt;stroke-linejoin:miter;stroke-miterlimit:10;stroke-opacity:1;" />
<path d="M 1351.4,320.2 L 1349.4,318.5 L 1347.0,319.4" style="fill:none;stroke:#727272;stroke-width:4.4px;stroke-linecap:butt;stroke-linejoin:miter;stroke-miterlimit:10;stroke-opacity:1;" />
<path d="M 1302.6,335.6 L 1300.2,336.5 L 1298.1,334.8" style="fill:none;stroke:#727272;stroke-width:4.4px;stroke-linecap:butt;stroke-linejoin:miter;stroke-miterlimit:10;stroke-opacity:1;" />
<path d="M 1262.0,304.4 L 1260.0,302.7 L 1257.5,303.6" style="fill:none;stroke:#727272;stroke-width:4.4px;stroke-linecap:butt;stroke-linejoin:miter;stroke-miterlimit:10;stroke-opacity:1;" />
<path d="M 1213.2,319.8 L 1210.7,320.7 L 1208.7,319.0" style="fill:none;stroke:#727272;stroke-width:4.4px;stroke-linecap:butt;stroke-linejoin:miter;stroke-miterlimit:10;stroke-opacity:1;" />
<path d="M 1172.5,288.6 L 1170.5,287.0 L 1168.1,287.8" style="fill:none;stroke:#727272;stroke-width:4.4px;stroke-linecap:butt;stroke-linejoin:miter;stroke-miterlimit:10;stroke-opacity:1;" />
<path d="M 1123.7,304.0 L 1121.3,304.9 L 1119.2,303.2" style="fill:none;stroke:#727272;stroke-width:4.4px;stroke-linecap:butt;stroke-linejoin:miter;stroke-miterlimit:10;stroke-opacity:1;" />
<path d="M 1083.1,272.8 L 1081.1,271.2 L 1078.6,272.1" style="fill:none;stroke:#727272;stroke-width:4.4px;stroke-linecap:butt;stroke-linejoin:miter;stroke-miterlimit:10;stroke-opacity:1;" />
<path d="M 1034.3,288.2 L 1031.8,289.1 L 1029.8,287.4" style="fill:none;stroke:#727272;stroke-width:4.4px;stroke-linecap:butt;stroke-linejoin:miter;stroke-miterlimit:10;stroke-opacity:1;" />
<path d="M 993.7,257.1 L 991.6,255.4 L 990.0,255.9" style="fill:none;stroke:#727272;stroke-width:4.4px;stroke-linecap:butt;stroke-linejoin:miter;stroke-miterlimit:10;stroke-opacity:1;" />
<path d="M 903.3,240.5 L 902.2,239.6 L 900.6,240.2" style="fill:none;stroke:#727272;stroke-width:4.4px;stroke-linecap:butt;stroke-linejoin:miter;stroke-miterlimit:10;stroke-opacity:1;" />
<path d="M 813.9,224.7 L 812.8,223.8 L 810.3,224.7" style="fill:none;stroke:#727272;stroke-width:4.4px;stroke-linecap:butt;stroke-linejoin:miter;stroke-miterlimit:10;stroke-opacity:1;" />
<path d="M 765.9,240.8 L 763.5,241.7 L 761.5,240.0" style="fill:none;stroke:#727272;stroke-width:4.4px;stroke-linecap:butt;stroke-linejoin:miter;stroke-miterlimit:10;stroke-opacity:1;" />
<path d="M 725.3,209.7 L 723.3,208.0 L 720.8,208.9" style="fill:none;stroke:#727272;stroke-width:4.4px;stroke-linecap:butt;stroke-linejoin:miter;stroke-miterlimit:10;stroke-opacity:1;" />
<path d="M 617.4,294.9 L 615.6,295.5 L 615.2,298.1" style="fill:none;stroke:#727272;stroke-width:4.4px;stroke-linecap:butt;stroke-linejoin:miter;stroke-miterlimit:10;stroke-opacity:1;" />
<path d="M 607.0,344.5 L 606.5,347.1 L 604.0,348.0" style="fill:none;stroke:#727272;stroke-width:4.4px;stroke-linecap:butt;stroke-linejoin:miter;stroke-miterlimit:10;stroke-opacity:1;" />
<path d="M 559.7,364.2 L 557.2,365.1 L 556.8,367.6" style="fill:none;stroke:#727272;stroke-width:4.4px;stroke-linecap:butt;stroke-linejoin:miter;stroke-miterlimit:10;stroke-opacity:1;" />
<path d="M 548.6,414.1 L 548.1,416.7 L 546.5,417.3" style="fill:none;stroke:#727272;stroke-width:4.4px;stroke-linecap:butt;stroke-linejoin:miter;stroke-miterlimit:10;stroke-opacity:1;" />
<path d="M 527.9,518.3 L 529.9,520.0 L 529.4,522.6" style="fill:none;stroke:#727272;stroke-width:4.4px;stroke-linecap:butt;stroke-linejoin:miter;stroke-miterlimit:10;stroke-opacity:1;" />
<path d="M 521.2,569.0 L 520.8,571.6 L 522.8,573.3" style="fill:none;stroke:#727272;stroke-width:4.4px;stroke-linecap:butt;stroke-linejoin:miter;stroke-miterlimit:10;stroke-opacity:1;" />
<path d="M 558.9,603.7 L 560.9,605.3 L 560.5,607.9" style="fill:none;stroke:#727272;stroke-width:4.4px;stroke-linecap:butt;stroke-linejoin:miter;stroke-miterlimit:10;stroke-opacity:1;" />
<path d="M 635.9,193.9 L 633.9,192.2 L 632.1,192.8" style="fill:none;stroke:#727272;stroke-width:4.4px;stroke-linecap:butt;stroke-linejoin:miter;stroke-miterlimit:10;stroke-opacity:1;" />
<path d="M 553.1,127.4 L 553.5,124.8 L 551.5,123.1" style="fill:none;stroke:#727272;stroke-width:4.4px;stroke-linecap:butt;stroke-linejoin:miter;stroke-miterlimit:10;stroke-opacity:1;" />
<path d="M 515.4,92.7 L 513.4,91.1 L 513.7,89.4" style="fill:none;stroke:#727272;stroke-width:4.4px;stroke-linecap:butt;stroke-linejoin:miter;stroke-miterlimit:10;stroke-opacity:1;" />
<path d="M 497.6,193.4 L 495.1,194.3 L 493.1,192.6" style="fill:none;stroke:#727272;stroke-width:4.4px;stroke-linecap:butt;stroke-linejoin:miter;stroke-miterlimit:10;stroke-opacity:1;" />
<path d="M 457.0,162.3 L 455.0,160.6 L 452.5,161.5" style="fill:none;stroke:#727272;stroke-width:4.4px;stroke-linecap:butt;stroke-linejoin:miter;stroke-miterlimit:10;stroke-opacity:1;" />
<path d="M 408.1,177.6 L 405.7,178.5 L 403.7,176.9" style="fill:none;stroke:#727272;stroke-width:4.4px;stroke-linecap:butt;stroke-linejoin:miter;stroke-miterlimit:10;stroke-opacity:1;" />
<path class="atom-11" d="M 985.2 203.8 Q 985.2 195.7, 989.2 191.1 Q 993.2 186.5, 1000.8 186.5 Q 1008.3 186.5, 1012.3 191.1 Q 1016.4 195.7, 1016.4 203.8 Q 1016.4 212.1, 1012.3 216.8 Q 1008.2 221.4, 1000.8 221.4 Q 993.3 221.4, 989.2 216.8 Q 985.2 212.1, 985.2 203.8 M 1000.8 217.6 Q 1005.9 217.6, 1008.7 214.1 Q 1011.6 210.6, 1011.6 203.8 Q 1011.6 197.2, 1008.7 193.8 Q 1005.9 190.4, 1000.8 190.4 Q 995.6 190.4, 992.7 193.7 Q 990.0 197.1, 990.0 203.8 Q 990.0 210.7, 992.7 214.1 Q 995.6 217.6, 1000.8 217.6 " fill="#303030" />
<path class="atom-12" d="M 926.8 273.4 Q 926.8 265.2, 930.8 260.7 Q 934.8 256.1, 942.4 256.1 Q 949.9 256.1, 953.9 260.7 Q 958.0 265.2, 958.0 273.4 Q 958.0 281.6, 953.9 286.4 Q 949.8 291.0, 942.4 291.0 Q 934.9 291.0, 930.8 286.4 Q 926.8 281.7, 926.8 273.4 M 942.4 287.2 Q 947.5 287.2, 950.3 283.7 Q 953.2 280.2, 953.2 273.4 Q 953.2 266.7, 950.3 263.4 Q 947.5 260.0, 942.4 260.0 Q 937.2 260.0, 934.3 263.3 Q 931.6 266.7, 931.6 273.4 Q 931.6 280.3, 934.3 283.7 Q 937.2 287.2, 942.4 287.2 " fill="#303030" />
<path class="atom-14" d="M 837.3 257.6 Q 837.3 249.4, 841.3 244.9 Q 845.4 240.3, 852.9 240.3 Q 860.5 240.3, 864.5 244.9 Q 868.5 249.4, 868.5 257.6 Q 868.5 265.9, 864.4 270.6 Q 860.4 275.2, 852.9 275.2 Q 845.4 275.2, 841.3 270.6 Q 837.3 265.9, 837.3 257.6 M 852.9 271.4 Q 858.1 271.4, 860.9 267.9 Q 863.7 264.4, 863.7 257.6 Q 863.7 250.9, 860.9 247.6 Q 858.1 244.2, 852.9 244.2 Q 847.7 244.2, 844.9 247.5 Q 842.1 250.9, 842.1 257.6 Q 842.1 264.5, 844.9 267.9 Q 847.7 271.4, 852.9 271.4 " fill="#303030" />
<path class="atom-19" d="M 657.4 260.6 L 668.5 278.6 Q 669.6 280.3, 671.4 283.6 Q 673.2 286.8, 673.3 287.0 L 673.3 260.6 L 677.8 260.6 L 677.8 294.6 L 673.1 294.6 L 661.2 274.9 Q 659.8 272.6, 658.3 269.9 Q 656.9 267.3, 656.4 266.5 L 656.4 294.6 L 652.0 294.6 L 652.0 260.6 L 657.4 260.6 " fill="#303030" />
<path class="atom-19" d="M 684.4 260.6 L 689.0 260.6 L 689.0 275.0 L 706.4 275.0 L 706.4 260.6 L 711.0 260.6 L 711.0 294.6 L 706.4 294.6 L 706.4 278.9 L 689.0 278.9 L 689.0 294.6 L 684.4 294.6 L 684.4 260.6 " fill="#303030" />
<path class="atom-24" d="M 572.7 450.5 Q 572.7 442.3, 576.7 437.8 Q 580.7 433.2, 588.3 433.2 Q 595.8 433.2, 599.8 437.8 Q 603.9 442.3, 603.9 450.5 Q 603.9 458.8, 599.8 463.5 Q 595.7 468.1, 588.3 468.1 Q 580.8 468.1, 576.7 463.5 Q 572.7 458.8, 572.7 450.5 M 588.3 464.3 Q 593.5 464.3, 596.2 460.8 Q 599.1 457.3, 599.1 450.5 Q 599.1 443.8, 596.2 440.5 Q 593.5 437.1, 588.3 437.1 Q 583.1 437.1, 580.3 440.4 Q 577.5 443.8, 577.5 450.5 Q 577.5 457.4, 580.3 460.8 Q 583.1 464.3, 588.3 464.3 " fill="#303030" />
<path class="atom-25" d="M 483.2 434.7 Q 483.2 426.6, 487.3 422.0 Q 491.3 417.4, 498.8 417.4 Q 506.4 417.4, 510.4 422.0 Q 514.4 426.6, 514.4 434.7 Q 514.4 443.0, 510.3 447.7 Q 506.3 452.3, 498.8 452.3 Q 491.3 452.3, 487.3 447.7 Q 483.2 443.0, 483.2 434.7 M 498.8 448.5 Q 504.0 448.5, 506.8 445.0 Q 509.6 441.5, 509.6 434.7 Q 509.6 428.0, 506.8 424.7 Q 504.0 421.3, 498.8 421.3 Q 493.6 421.3, 490.8 424.6 Q 488.0 428.0, 488.0 434.7 Q 488.0 441.6, 490.8 445.0 Q 493.6 448.5, 498.8 448.5 " fill="#303030" />
<path class="atom-33" d="M 627.4 140.7 Q 627.4 132.5, 631.4 127.9 Q 635.4 123.4, 643.0 123.4 Q 650.5 123.4, 654.5 127.9 Q 658.6 132.5, 658.6 140.7 Q 658.6 148.9, 654.5 153.6 Q 650.4 158.3, 643.0 158.3 Q 635.5 158.3, 631.4 153.6 Q 627.4 149.0, 627.4 140.7 M 643.0 154.4 Q 648.2 154.4, 650.9 151.0 Q 653.8 147.5, 653.8 140.7 Q 653.8 134.0, 650.9 130.6 Q 648.2 127.2, 643.0 127.2 Q 637.8 127.2, 635.0 130.6 Q 632.2 133.9, 632.2 140.7 Q 632.2 147.5, 635.0 151.0 Q 637.8 154.4, 643.0 154.4 " fill="#303030" />
<path class="atom-34" d="M 577.1 193.1 L 588.2 211.1 Q 589.3 212.9, 591.1 216.1 Q 592.9 219.3, 593.0 219.5 L 593.0 193.1 L 597.5 193.1 L 597.5 227.1 L 592.8 227.1 L 580.9 207.4 Q 579.5 205.1, 578.0 202.5 Q 576.5 199.9, 576.1 199.0 L 576.1 227.1 L 571.7 227.1 L 571.7 193.1 L 577.1 193.1 " fill="#303030" />
<path class="atom-34" d="M 571.3 230.5 L 575.9 230.5 L 575.9 245.0 L 593.3 245.0 L 593.3 230.5 L 597.9 230.5 L 597.9 264.5 L 593.3 264.5 L 593.3 248.8 L 575.9 248.8 L 575.9 264.5 L 571.3 264.5 L 571.3 230.5 " fill="#303030" />
<path class="atom-38" d="M 515.0 22.4 L 526.1 40.4 Q 527.2 42.2, 529.0 45.4 Q 530.8 48.6, 530.9 48.8 L 530.9 22.4 L 535.4 22.4 L 535.4 56.4 L 530.7 56.4 L 518.8 36.7 Q 517.4 34.4, 515.9 31.8 Q 514.4 29.1, 514.0 28.3 L 514.0 56.4 L 509.6 56.4 L 509.6 22.4 L 515.0 22.4 " fill="#303030" />
<path class="atom-38" d="M 541.9 22.4 L 546.5 22.4 L 546.5 36.9 L 563.8 36.9 L 563.8 22.4 L 568.5 22.4 L 568.5 56.4 L 563.8 56.4 L 563.8 40.7 L 546.5 40.7 L 546.5 56.4 L 541.9 56.4 L 541.9 22.4 " fill="#303030" />
<path class="atom-38" d="M 575.1 55.2 Q 575.9 53.1, 577.9 51.9 Q 579.9 50.7, 582.6 50.7 Q 586.0 50.7, 587.9 52.5 Q 589.8 54.4, 589.8 57.6 Q 589.8 61.0, 587.3 64.1 Q 584.9 67.2, 579.8 70.9 L 590.2 70.9 L 590.2 73.4 L 575.0 73.4 L 575.0 71.3 Q 579.2 68.3, 581.7 66.1 Q 584.2 63.9, 585.4 61.9 Q 586.6 59.9, 586.6 57.8 Q 586.6 55.7, 585.5 54.4 Q 584.5 53.2, 582.6 53.2 Q 580.8 53.2, 579.6 54.0 Q 578.4 54.7, 577.5 56.3 L 575.1 55.2 " fill="#303030" />
</svg>