<?xml version='1.0' encoding='utf-8'?>
<svg xmlns="http://www.w3.org/2000/svg" width="950" height="560" viewBox="0 0 950 560"><rect width="100%" height="100%" fill="white" /><text font-family="Times New Roman, serif" font-size="31" x="18" y="34" fill="#303030">Amine</text><svg version="1.1" baseProfile="full" xml:space="preserve" width="450px" height="215px" viewBox="0 0 450 215" x="10" y="50">

<rect style="opacity:1.0;fill:#FFFFFF;stroke:none" width="450.0" height="215.0" x="0.0" y="0.0"> </rect>
<path class="bond-0 atom-0 atom-1" d="M 100.8,20.8 L 153.4,111.9" style="fill:none;fill-rule:evenodd;stroke:#727272;stroke-width:2.2px;stroke-linecap:butt;stroke-linejoin:miter;stroke-opacity:1" />
<path class="bond-1 atom-1 atom-2" d="M 153.4,111.9 L 100.8,202.9" style="fill:none;fill-rule:evenodd;stroke:#727272;stroke-width:2.2px;stroke-linecap:butt;stroke-linejoin:miter;stroke-opacity:1" />
<path class="bond-2 atom-1 atom-3" d="M 153.4,111.9 L 258.5,111.9" style="fill:none;fill-rule:evenodd;stroke:#727272;stroke-width:2.2px;stroke-linecap:butt;stroke-linejoin:miter;stroke-opacity:1" />
<path class="bond-3 atom-3 atom-4" d="M 258.5,111.9 L 311.1,202.9" style="fill:none;fill-rule:evenodd;stroke:#727272;stroke-width:2.2px;stroke-linecap:butt;stroke-linejoin:miter;stroke-opacity:1" />
<path class="bond-4 atom-3 atom-5" d="M 258.5,111.9 L 303.6,33.9" style="fill:none;fill-rule:evenodd;stroke:#727272;stroke-width:2.2px;stroke-linecap:butt;stroke-linejoin:miter;stroke-opacity:1" />
<path class="atom-5" d="M 306.9 11.3 L 313.1 21.4 Q 313.8 22.4, 314.8 24.2 Q 315.8 26.0, 315.8 26.1 L 315.8 11.3 L 318.4 11.3 L 318.4 30.4 L 315.7 30.4 L 309.0 19.3 Q 308.2 18.0, 307.4 16.5 Q 306.6 15.0, 306.3 14.6 L 306.3 30.4 L 303.9 30.4 L 303.9 11.3 L 306.9 11.3 " fill="#303030" />
<path class="atom-5" d="M 322.0 11.3 L 324.6 11.3 L 324.6 19.4 L 334.4 19.4 L 334.4 11.3 L 337.0 11.3 L 337.0 30.4 L 334.4 30.4 L 334.4 21.6 L 324.6 21.6 L 324.6 30.4 L 322.0 30.4 L 322.0 11.3 " fill="#303030" />
<path class="atom-5" d="M 340.7 29.7 Q 341.2 28.5, 342.3 27.9 Q 343.4 27.2, 344.9 27.2 Q 346.8 27.2, 347.9 28.2 Q 349.0 29.2, 349.0 31.1 Q 349.0 33.0, 347.6 34.7 Q 346.2 36.4, 343.3 38.5 L 349.2 38.5 L 349.2 39.9 L 340.7 39.9 L 340.7 38.7 Q 343.0 37.1, 344.4 35.8 Q 345.8 34.6, 346.5 33.5 Q 347.2 32.3, 347.2 31.2 Q 347.2 30.0, 346.6 29.3 Q 346.0 28.6, 344.9 28.6 Q 343.9 28.6, 343.2 29.0 Q 342.5 29.4, 342.1 30.3 L 340.7 29.7 " fill="#303030" />
</svg><text font-family="Times New Roman, serif" font-size="31" x="493" y="34" fill="#303030">Isocyanide</text><svg version="1.1" baseProfile="full" xml:space="preserve" width="450px" height="215px" viewBox="0 0 450 215" x="485" y="50">

<rect style="opacity:1.0;fill:#FFFFFF;stroke:none" width="450.0" height="215.0" x="0.0" y="0.0"> </rect>
<path class="bond-0 atom-0 atom-1" d="M 44.4,93.7 L 110.3,132.8" style="fill:none;fill-rule:evenodd;stroke:#727272;stroke-width:2.2px;stroke-linecap:butt;stroke-linejoin:miter;stroke-opacity:1" />
<path class="bond-0 atom-0 atom-1" d="M 51.7,81.5 L 117.5,120.6" style="fill:none;fill-rule:evenodd;stroke:#727272;stroke-width:2.2px;stroke-linecap:butt;stroke-linejoin:miter;stroke-opacity:1" />
<path class="bond-0 atom-0 atom-1" d="M 37.2,105.9 L 103.0,145.0" style="fill:none;fill-rule:evenodd;stroke:#727272;stroke-width:2.2px;stroke-linecap:butt;stroke-linejoin:miter;stroke-opacity:1" />
<path class="bond-1 atom-1 atom-2" d="M 131.5,145.3 L 208.0,190.8" style="fill:none;fill-rule:evenodd;stroke:#727272;stroke-width:2.2px;stroke-linecap:butt;stroke-linejoin:miter;stroke-opacity:1" />
<path class="bond-2 atom-2 atom-3" d="M 208.0,190.8 L 296.4,141.2" style="fill:none;fill-rule:evenodd;stroke:#727272;stroke-width:2.2px;stroke-linecap:butt;stroke-linejoin:miter;stroke-opacity:1" />
<path class="bond-3 atom-3 atom-4" d="M 296.4,141.2 L 387.1,142.3" style="fill:none;fill-rule:evenodd;stroke:#727272;stroke-width:2.2px;stroke-linecap:butt;stroke-linejoin:miter;stroke-opacity:1" />
<path class="bond-4 atom-4 atom-5" d="M 390.5,129.5 L 355.4,66.9" style="fill:none;fill-rule:evenodd;stroke:#727272;stroke-width:2.2px;stroke-linecap:butt;stroke-linejoin:miter;stroke-opacity:1" />
<path class="bond-5 atom-5 atom-3" d="M 340.5,66.9 L 296.4,141.2" style="fill:none;fill-rule:evenodd;stroke:#727272;stroke-width:2.2px;stroke-linecap:butt;stroke-linejoin:miter;stroke-opacity:1" />
<path d="M 204.2,188.5 L 208.0,190.8 L 212.4,188.3" style="fill:none;stroke:#727272;stroke-width:2.2px;stroke-linecap:butt;stroke-linejoin:miter;stroke-miterlimit:10;stroke-opacity:1;" />
<path class="atom-0" d="M 26.3 87.4 Q 26.3 82.7, 28.6 80.2 Q 30.8 77.7, 35.0 77.7 Q 39.0 77.7, 41.1 80.4 L 39.3 81.9 Q 37.8 79.9, 35.0 79.9 Q 32.2 79.9, 30.6 81.8 Q 29.1 83.7, 29.1 87.4 Q 29.1 91.2, 30.7 93.1 Q 32.3 95.1, 35.3 95.1 Q 37.4 95.1, 39.9 93.8 L 40.7 95.8 Q 39.7 96.5, 38.1 96.9 Q 36.6 97.2, 35.0 97.2 Q 30.8 97.2, 28.6 94.7 Q 26.3 92.2, 26.3 87.4 " fill="#303030" />
<path class="atom-0" d="M 43.4 80.8 L 49.9 80.8 L 49.9 82.2 L 43.4 82.2 L 43.4 80.8 " fill="#303030" />
<path class="atom-1" d="M 116.6 129.5 L 122.9 139.6 Q 123.5 140.6, 124.5 142.4 Q 125.5 144.2, 125.6 144.3 L 125.6 129.5 L 128.1 129.5 L 128.1 148.6 L 125.5 148.6 L 118.8 137.5 Q 118.0 136.2, 117.2 134.8 Q 116.3 133.3, 116.1 132.8 L 116.1 148.6 L 113.6 148.6 L 113.6 129.5 L 116.6 129.5 " fill="#303030" />
<path class="atom-1" d="M 131.7 132.9 L 135.1 132.9 L 135.1 129.4 L 136.6 129.4 L 136.6 132.9 L 140.0 132.9 L 140.0 134.2 L 136.6 134.2 L 136.6 137.8 L 135.1 137.8 L 135.1 134.2 L 131.7 134.2 L 131.7 132.9 " fill="#303030" />
<path class="atom-4" d="M 393.5 132.8 L 399.8 142.9 Q 400.4 143.9, 401.4 145.8 Q 402.4 147.6, 402.4 147.7 L 402.4 132.8 L 405.0 132.8 L 405.0 151.9 L 402.4 151.9 L 395.6 140.9 Q 394.9 139.6, 394.0 138.1 Q 393.2 136.6, 393.0 136.1 L 393.0 151.9 L 390.5 151.9 L 390.5 132.8 L 393.5 132.8 " fill="#303030" />
<path class="atom-4" d="M 408.7 132.8 L 411.3 132.8 L 411.3 141.0 L 421.1 141.0 L 421.1 132.8 L 423.7 132.8 L 423.7 151.9 L 421.1 151.9 L 421.1 143.1 L 411.3 143.1 L 411.3 151.9 L 408.7 151.9 L 408.7 132.8 " fill="#303030" />
<path class="atom-5" d="M 343.9 44.5 L 350.2 54.6 Q 350.8 55.6, 351.8 57.4 Q 352.8 59.2, 352.8 59.3 L 352.8 44.5 L 355.4 44.5 L 355.4 63.6 L 352.7 63.6 L 346.0 52.5 Q 345.2 51.2, 344.4 49.7 Q 343.6 48.2, 343.4 47.8 L 343.4 63.6 L 340.9 63.6 L 340.9 44.5 L 343.9 44.5 " fill="#303030" />
<path class="atom-5" d="M 340.6 23.4 L 343.2 23.4 L 343.2 31.6 L 353.0 31.6 L 353.0 23.4 L 355.6 23.4 L 355.6 42.5 L 353.0 42.5 L 353.0 33.7 L 343.2 33.7 L 343.2 42.5 L 340.6 42.5 L 340.6 23.4 " fill="#303030" />
</svg><text font-family="Times New Roman, serif" font-size="31" x="18" y="314" fill="#303030">Aldehyde</text><svg version="1.1" baseProfile="full" xml:space="preserve" width="925px" height="215px" viewBox="0 0 925 215" x="10" y="330">

<rect style="opacity:1.0;fill:#FFFFFF;stroke:none" width="925.0" height="215.0" x="0.0" y="0.0"> </rect>
<path class="bond-0 atom-0 atom-1" d="M 37.0,148.8 L 93.7,117.1" style="fill:none;fill-rule:evenodd;stroke:#727272;stroke-width:2.2px;stroke-linecap:butt;stroke-linejoin:miter;stroke-opacity:1" />
<path class="bond-1 atom-1 atom-2" d="M 93.7,117.1 L 149.6,150.3" style="fill:none;fill-rule:evenodd;stroke:#727272;stroke-width:2.2px;stroke-linecap:butt;stroke-linejoin:miter;stroke-opacity:1" />
<path class="bond-2 atom-2 atom-3" d="M 149.6,150.3 L 206.3,118.5" style="fill:none;fill-rule:evenodd;stroke:#727272;stroke-width:2.2px;stroke-linecap:butt;stroke-linejoin:miter;stroke-opacity:1" />
<path class="bond-3 atom-3 atom-4" d="M 206.3,118.5 L 262.2,151.7" style="fill:none;fill-rule:evenodd;stroke:#727272;stroke-width:2.2px;stroke-linecap:butt;stroke-linejoin:miter;stroke-opacity:1" />
<path class="bond-4 atom-4 atom-5" d="M 262.2,151.7 L 318.9,120.0" style="fill:none;fill-rule:evenodd;stroke:#727272;stroke-width:2.2px;stroke-linecap:butt;stroke-linejoin:miter;stroke-opacity:1" />
<path class="bond-5 atom-5 atom-6" d="M 318.9,120.0 L 374.7,153.2" style="fill:none;fill-rule:evenodd;stroke:#727272;stroke-width:2.2px;stroke-linecap:butt;stroke-linejoin:miter;stroke-opacity:1" />
<path class="bond-6 atom-6 atom-7" d="M 374.7,153.2 L 431.5,121.4" style="fill:none;fill-rule:evenodd;stroke:#727272;stroke-width:2.2px;stroke-linecap:butt;stroke-linejoin:miter;stroke-opacity:1" />
<path class="bond-7 atom-7 atom-8" d="M 431.5,121.4 L 487.3,154.6" style="fill:none;fill-rule:evenodd;stroke:#727272;stroke-width:2.2px;stroke-linecap:butt;stroke-linejoin:miter;stroke-opacity:1" />
<path class="bond-8 atom-8 atom-9" d="M 487.3,154.6 L 544.0,122.8" style="fill:none;fill-rule:evenodd;stroke:#727272;stroke-width:2.2px;stroke-linecap:butt;stroke-linejoin:miter;stroke-opacity:1" />
<path class="bond-9 atom-9 atom-10" d="M 548.5,125.5 L 549.3,69.6" style="fill:none;fill-rule:evenodd;stroke:#727272;stroke-width:2.2px;stroke-linecap:butt;stroke-linejoin:miter;stroke-opacity:1" />
<path class="bond-9 atom-9 atom-10" d="M 539.4,125.4 L 540.2,69.5" style="fill:none;fill-rule:evenodd;stroke:#727272;stroke-width:2.2px;stroke-linecap:butt;stroke-linejoin:miter;stroke-opacity:1" />
<path class="bond-10 atom-9 atom-11" d="M 544.0,122.8 L 589.3,149.8" style="fill:none;fill-rule:evenodd;stroke:#727272;stroke-width:2.2px;stroke-linecap:butt;stroke-linejoin:miter;stroke-opacity:1" />
<path class="bond-11 atom-11 atom-12" d="M 610.5,150.1 L 656.6,124.3" style="fill:none;fill-rule:evenodd;stroke:#727272;stroke-width:2.2px;stroke-linecap:butt;stroke-linejoin:miter;stroke-opacity:1" />
<path class="bond-12 atom-12 atom-13" d="M 656.6,124.3 L 712.5,157.5" style="fill:none;fill-rule:evenodd;stroke:#727272;stroke-width:2.2px;stroke-linecap:butt;stroke-linejoin:miter;stroke-opacity:1" />
<path class="bond-13 atom-13 atom-14" d="M 712.5,157.5 L 769.2,125.7" style="fill:none;fill-rule:evenodd;stroke:#727272;stroke-width:2.2px;stroke-linecap:butt;stroke-linejoin:miter;stroke-opacity:1" />
<path class="bond-14 atom-14 atom-15" d="M 769.2,125.7 L 825.1,159.0" style="fill:none;fill-rule:evenodd;stroke:#727272;stroke-width:2.2px;stroke-linecap:butt;stroke-linejoin:miter;stroke-opacity:1" />
<path class="bond-15 atom-15 atom-16" d="M 825.1,159.0 L 871.2,133.1" style="fill:none;fill-rule:evenodd;stroke:#727272;stroke-width:2.2px;stroke-linecap:butt;stroke-linejoin:miter;stroke-opacity:1" />
<path class="bond-15 atom-15 atom-16" d="M 825.2,148.4 L 866.7,125.2" style="fill:none;fill-rule:evenodd;stroke:#727272;stroke-width:2.2px;stroke-linecap:butt;stroke-linejoin:miter;stroke-opacity:1" />
<path d="M 90.9,118.7 L 93.7,117.1 L 96.5,118.7" style="fill:none;stroke:#727272;stroke-width:2.2px;stroke-linecap:butt;stroke-linejoin:miter;stroke-miterlimit:10;stroke-opacity:1;" />
<path d="M 146.8,148.6 L 149.6,150.3 L 152.4,148.7" style="fill:none;stroke:#727272;stroke-width:2.2px;stroke-linecap:butt;stroke-linejoin:miter;stroke-miterlimit:10;stroke-opacity:1;" />
<path d="M 203.5,120.1 L 206.3,118.5 L 209.1,120.2" style="fill:none;stroke:#727272;stroke-width:2.2px;stroke-linecap:butt;stroke-linejoin:miter;stroke-miterlimit:10;stroke-opacity:1;" />
<path d="M 259.4,150.1 L 262.2,151.7 L 265.0,150.1" style="fill:none;stroke:#727272;stroke-width:2.2px;stroke-linecap:butt;stroke-linejoin:miter;stroke-miterlimit:10;stroke-opacity:1;" />
<path d="M 316.0,121.5 L 318.9,120.0 L 321.7,121.6" style="fill:none;stroke:#727272;stroke-width:2.2px;stroke-linecap:butt;stroke-linejoin:miter;stroke-miterlimit:10;stroke-opacity:1;" />
<path d="M 371.9,151.5 L 374.7,153.2 L 377.6,151.6" style="fill:none;stroke:#727272;stroke-width:2.2px;stroke-linecap:butt;stroke-linejoin:miter;stroke-miterlimit:10;stroke-opacity:1;" />
<path d="M 428.6,123.0 L 431.5,121.4 L 434.2,123.1" style="fill:none;stroke:#727272;stroke-width:2.2px;stroke-linecap:butt;stroke-linejoin:miter;stroke-miterlimit:10;stroke-opacity:1;" />
<path d="M 484.5,153.0 L 487.3,154.6 L 490.2,153.0" style="fill:none;stroke:#727272;stroke-width:2.2px;stroke-linecap:butt;stroke-linejoin:miter;stroke-miterlimit:10;stroke-opacity:1;" />
<path d="M 541.2,124.4 L 544.0,122.8 L 546.3,124.2" style="fill:none;stroke:#727272;stroke-width:2.2px;stroke-linecap:butt;stroke-linejoin:miter;stroke-miterlimit:10;stroke-opacity:1;" />
<path d="M 654.3,125.6 L 656.6,124.3 L 659.4,126.0" style="fill:none;stroke:#727272;stroke-width:2.2px;stroke-linecap:butt;stroke-linejoin:miter;stroke-miterlimit:10;stroke-opacity:1;" />
<path d="M 709.7,155.9 L 712.5,157.5 L 715.3,155.9" style="fill:none;stroke:#727272;stroke-width:2.2px;stroke-linecap:butt;stroke-linejoin:miter;stroke-miterlimit:10;stroke-opacity:1;" />
<path d="M 766.4,127.3 L 769.2,125.7 L 772.0,127.4" style="fill:none;stroke:#727272;stroke-width:2.2px;stroke-linecap:butt;stroke-linejoin:miter;stroke-miterlimit:10;stroke-opacity:1;" />
<path d="M 822.3,157.3 L 825.1,159.0 L 827.4,157.7" style="fill:none;stroke:#727272;stroke-width:2.2px;stroke-linecap:butt;stroke-linejoin:miter;stroke-miterlimit:10;stroke-opacity:1;" />
<path class="atom-10" d="M 536.4 57.9 Q 536.4 53.5, 538.6 51.0 Q 540.8 48.5, 544.9 48.5 Q 548.9 48.5, 551.1 51.0 Q 553.3 53.5, 553.3 57.9 Q 553.3 62.4, 551.1 64.9 Q 548.9 67.4, 544.9 67.4 Q 540.8 67.4, 538.6 64.9 Q 536.4 62.4, 536.4 57.9 M 544.9 65.4 Q 547.7 65.4, 549.2 63.5 Q 550.7 61.6, 550.7 57.9 Q 550.7 54.3, 549.2 52.5 Q 547.7 50.6, 544.9 50.6 Q 542.1 50.6, 540.5 52.4 Q 539.0 54.3, 539.0 57.9 Q 539.0 61.6, 540.5 63.5 Q 542.1 65.4, 544.9 65.4 " fill="#303030" />
<path class="atom-11" d="M 591.5 156.1 Q 591.5 151.7, 593.6 149.2 Q 595.8 146.8, 599.9 146.8 Q 604.0 146.8, 606.2 149.2 Q 608.4 151.7, 608.4 156.1 Q 608.4 160.6, 606.1 163.1 Q 603.9 165.7, 599.9 165.7 Q 595.8 165.7, 593.6 163.1 Q 591.5 160.6, 591.5 156.1 M 599.9 163.6 Q 602.7 163.6, 604.2 161.7 Q 605.8 159.8, 605.8 156.1 Q 605.8 152.5, 604.2 150.7 Q 602.7 148.8, 599.9 148.8 Q 597.1 148.8, 595.6 150.7 Q 594.1 152.5, 594.1 156.1 Q 594.1 159.8, 595.6 161.7 Q 597.1 163.6, 599.9 163.6 " fill="#303030" />
<path class="atom-16" d="M 871.1 123.3 Q 871.1 118.8, 873.3 116.4 Q 875.5 113.9, 879.5 113.9 Q 883.6 113.9, 885.8 116.4 Q 888.0 118.8, 888.0 123.3 Q 888.0 127.7, 885.8 130.3 Q 883.6 132.8, 879.5 132.8 Q 875.5 132.8, 873.3 130.3 Q 871.1 127.8, 871.1 123.3 M 879.5 130.7 Q 882.4 130.7, 883.9 128.9 Q 885.4 127.0, 885.4 123.3 Q 885.4 119.6, 883.9 117.8 Q 882.4 116.0, 879.5 116.0 Q 876.7 116.0, 875.2 117.8 Q 873.7 119.6, 873.7 123.3 Q 873.7 127.0, 875.2 128.9 Q 876.7 130.7, 879.5 130.7 " fill="#303030" />
</svg></svg>