<?xml version='1.0' encoding='utf-8'?>
<svg xmlns="http://www.w3.org/2000/svg" width="950" height="560" viewBox="0 0 950 560"><rect width="100%" height="100%" fill="white" /><text font-family="Times New Roman, serif" font-size="31" x="18" y="34" fill="#303030">Amine</text><svg version="1.1" baseProfile="full" xml:space="preserve" width="450px" height="215px" viewBox="0 0 450 215" x="10" y="50">

<rect style="opacity:1.0;fill:#FFFFFF;stroke:none" width="450.0" height="215.0" x="0.0" y="0.0"> </rect>
<path class="bond-0 atom-0 atom-1" d="M 18.0,152.0 L 72.5,121.5" style="fill:none;fill-rule:evenodd;stroke:#727272;stroke-width:2.2px;stroke-linecap:butt;stroke-linejoin:miter;stroke-opacity:1" />
<path class="bond-1 atom-1 atom-2" d="M 72.5,121.5 L 115.9,147.4" style="fill:none;fill-rule:evenodd;stroke:#727272;stroke-width:2.2px;stroke-linecap:butt;stroke-linejoin:miter;stroke-opacity:1" />
<path class="bond-2 atom-2 atom-3" d="M 136.3,147.7 L 180.6,122.9" style="fill:none;fill-rule:evenodd;stroke:#727272;stroke-width:2.2px;stroke-linecap:butt;stroke-linejoin:miter;stroke-opacity:1" />
<path class="bond-3 atom-3 atom-4" d="M 184.9,125.5 L 185.6,71.8" style="fill:none;fill-rule:evenodd;stroke:#727272;stroke-width:2.2px;stroke-linecap:butt;stroke-linejoin:miter;stroke-opacity:1" />
<path class="bond-3 atom-3 atom-4" d="M 176.2,125.4 L 176.9,71.7" style="fill:none;fill-rule:evenodd;stroke:#727272;stroke-width:2.2px;stroke-linecap:butt;stroke-linejoin:miter;stroke-opacity:1" />
<path class="bond-4 atom-3 atom-5" d="M 180.6,122.9 L 234.2,154.8" style="fill:none;fill-rule:evenodd;stroke:#727272;stroke-width:2.2px;stroke-linecap:butt;stroke-linejoin:miter;stroke-opacity:1" />
<path class="bond-5 atom-5 atom-6" d="M 234.2,154.8 L 288.7,124.3" style="fill:none;fill-rule:evenodd;stroke:#727272;stroke-width:2.2px;stroke-linecap:butt;stroke-linejoin:miter;stroke-opacity:1" />
<path class="bond-6 atom-6 atom-7" d="M 288.7,124.3 L 342.3,156.2" style="fill:none;fill-rule:evenodd;stroke:#727272;stroke-width:2.2px;stroke-linecap:butt;stroke-linejoin:miter;stroke-opacity:1" />
<path class="bond-7 atom-7 atom-8" d="M 342.3,156.2 L 388.0,130.6" style="fill:none;fill-rule:evenodd;stroke:#727272;stroke-width:2.2px;stroke-linecap:butt;stroke-linejoin:miter;stroke-opacity:1" />
<path d="M 69.7,123.0 L 72.5,121.5 L 74.6,122.8" style="fill:none;stroke:#727272;stroke-width:2.2px;stroke-linecap:butt;stroke-linejoin:miter;stroke-miterlimit:10;stroke-opacity:1;" />
<path d="M 178.4,124.2 L 180.6,122.9 L 183.3,124.5" style="fill:none;stroke:#727272;stroke-width:2.2px;stroke-linecap:butt;stroke-linejoin:miter;stroke-miterlimit:10;stroke-opacity:1;" />
<path d="M 231.5,153.2 L 234.2,154.8 L 236.9,153.3" style="fill:none;stroke:#727272;stroke-width:2.2px;stroke-linecap:butt;stroke-linejoin:miter;stroke-miterlimit:10;stroke-opacity:1;" />
<path d="M 286.0,125.8 L 288.7,124.3 L 291.4,125.9" style="fill:none;stroke:#727272;stroke-width:2.2px;stroke-linecap:butt;stroke-linejoin:miter;stroke-miterlimit:10;stroke-opacity:1;" />
<path d="M 339.7,154.6 L 342.3,156.2 L 344.6,154.9" style="fill:none;stroke:#727272;stroke-width:2.2px;stroke-linecap:butt;stroke-linejoin:miter;stroke-miterlimit:10;stroke-opacity:1;" />
<path class="atom-2" d="M 118.0 153.5 Q 118.0 149.2, 120.1 146.9 Q 122.2 144.5, 126.1 144.5 Q 130.0 144.5, 132.1 146.9 Q 134.2 149.2, 134.2 153.5 Q 134.2 157.8, 132.1 160.2 Q 130.0 162.6, 126.1 162.6 Q 122.2 162.6, 120.1 160.2 Q 118.0 157.8, 118.0 153.5 M 126.1 160.6 Q 128.8 160.6, 130.3 158.8 Q 131.7 157.0, 131.7 153.5 Q 131.7 150.0, 130.3 148.3 Q 128.8 146.5, 126.1 146.5 Q 123.4 146.5, 121.9 148.2 Q 120.5 150.0, 120.5 153.5 Q 120.5 157.0, 121.9 158.8 Q 123.4 160.6, 126.1 160.6 " fill="#303030" />
<path class="atom-4" d="M 173.3 60.5 Q 173.3 56.3, 175.4 53.9 Q 177.5 51.6, 181.4 51.6 Q 185.3 51.6, 187.4 53.9 Q 189.5 56.3, 189.5 60.5 Q 189.5 64.8, 187.4 67.3 Q 185.2 69.7, 181.4 69.7 Q 177.5 69.7, 175.4 67.3 Q 173.3 64.9, 173.3 60.5 M 181.4 67.7 Q 184.1 67.7, 185.5 65.9 Q 187.0 64.1, 187.0 60.5 Q 187.0 57.1, 185.5 55.3 Q 184.1 53.6, 181.4 53.6 Q 178.7 53.6, 177.2 55.3 Q 175.8 57.1, 175.8 60.5 Q 175.8 64.1, 177.2 65.9 Q 178.7 67.7, 181.4 67.7 " fill="#303030" />
<path class="atom-8" d="M 392.9 116.9 L 398.7 126.2 Q 399.3 127.2, 400.2 128.8 Q 401.1 130.5, 401.2 130.6 L 401.2 116.9 L 403.5 116.9 L 403.5 134.6 L 401.1 134.6 L 394.9 124.3 Q 394.1 123.1, 393.4 121.7 Q 392.6 120.4, 392.4 119.9 L 392.4 134.6 L 390.1 134.6 L 390.1 116.9 L 392.9 116.9 " fill="#303030" />
<path class="atom-8" d="M 406.9 116.9 L 409.3 116.9 L 409.3 124.4 L 418.3 124.4 L 418.3 116.9 L 420.7 116.9 L 420.7 134.6 L 418.3 134.6 L 418.3 126.4 L 409.3 126.4 L 409.3 134.6 L 406.9 134.6 L 406.9 116.9 " fill="#303030" />
<path class="atom-8" d="M 424.2 133.9 Q 424.6 132.8, 425.6 132.2 Q 426.6 131.6, 428.1 131.6 Q 429.8 131.6, 430.8 132.5 Q 431.8 133.5, 431.8 135.2 Q 431.8 136.9, 430.5 138.5 Q 429.2 140.2, 426.6 142.1 L 432.0 142.1 L 432.0 143.4 L 424.1 143.4 L 424.1 142.3 Q 426.3 140.7, 427.6 139.6 Q 428.9 138.4, 429.5 137.4 Q 430.2 136.4, 430.2 135.3 Q 430.2 134.2, 429.6 133.5 Q 429.0 132.9, 428.1 132.9 Q 427.1 132.9, 426.5 133.3 Q 425.9 133.7, 425.4 134.5 L 424.2 133.9 " fill="#303030" />
</svg><text font-family="Times New Roman, serif" font-size="31" x="493" y="34" fill="#303030">Isocyanide</text><svg version="1.1" baseProfile="full" xml:space="preserve" width="450px" height="215px" viewBox="0 0 450 215" x="485" y="50">

<rect style="opacity:1.0;fill:#FFFFFF;stroke:none" width="450.0" height="215.0" x="0.0" y="0.0"> </rect>
<path class="bond-0 atom-0 atom-1" d="M 64.4,183.4 L 82.4,142.6" style="fill:none;fill-rule:evenodd;stroke:#727272;stroke-width:2.2px;stroke-linecap:butt;stroke-linejoin:miter;stroke-opacity:1" />
<path class="bond-0 atom-0 atom-1" d="M 55.4,179.5 L 73.4,138.6" style="fill:none;fill-rule:evenodd;stroke:#727272;stroke-width:2.2px;stroke-linecap:butt;stroke-linejoin:miter;stroke-opacity:1" />
<path class="bond-0 atom-0 atom-1" d="M 73.5,187.4 L 91.5,146.6" style="fill:none;fill-rule:evenodd;stroke:#727272;stroke-width:2.2px;stroke-linecap:butt;stroke-linejoin:miter;stroke-opacity:1" />
<path class="bond-1 atom-1 atom-2" d="M 92.9,118.8 L 116.2,65.9" style="fill:none;fill-rule:evenodd;stroke:#727272;stroke-width:2.2px;stroke-linecap:butt;stroke-linejoin:miter;stroke-opacity:1" />
<path class="bond-2 atom-2 atom-3" d="M 116.2,65.9 L 74.4,8.8" style="fill:none;fill-rule:evenodd;stroke:#727272;stroke-width:2.2px;stroke-linecap:butt;stroke-linejoin:miter;stroke-opacity:1" />
<path class="bond-3 atom-2 atom-4" d="M 116.2,65.9 L 186.6,58.3" style="fill:none;fill-rule:evenodd;stroke:#727272;stroke-width:2.2px;stroke-linecap:butt;stroke-linejoin:miter;stroke-opacity:1" />
<path class="bond-4 atom-4 atom-5" d="M 186.6,58.3 L 228.4,115.4" style="fill:none;fill-rule:evenodd;stroke:#727272;stroke-width:2.2px;stroke-linecap:butt;stroke-linejoin:miter;stroke-opacity:1" />
<path class="bond-5 atom-5 atom-6" d="M 228.4,115.4 L 289.2,108.7" style="fill:none;fill-rule:evenodd;stroke:#727272;stroke-width:2.2px;stroke-linecap:butt;stroke-linejoin:miter;stroke-opacity:1" />
<path class="bond-6 atom-6 atom-7" d="M 308.3,95.8 L 343.1,52.5" style="fill:none;fill-rule:evenodd;stroke:#727272;stroke-width:2.2px;stroke-linecap:butt;stroke-linejoin:miter;stroke-opacity:1" />
<path class="bond-7 atom-7 atom-8" d="M 343.1,52.5 L 398.2,96.9" style="fill:none;fill-rule:evenodd;stroke:#727272;stroke-width:2.2px;stroke-linecap:butt;stroke-linejoin:miter;stroke-opacity:1" />
<path class="bond-8 atom-8 atom-9" d="M 398.2,96.9 L 353.9,152.0" style="fill:none;fill-rule:evenodd;stroke:#727272;stroke-width:2.2px;stroke-linecap:butt;stroke-linejoin:miter;stroke-opacity:1" />
<path class="bond-9 atom-9 atom-6" d="M 353.9,152.0 L 308.3,115.4" style="fill:none;fill-rule:evenodd;stroke:#727272;stroke-width:2.2px;stroke-linecap:butt;stroke-linejoin:miter;stroke-opacity:1" />
<path d="M 183.1,58.7 L 186.6,58.3 L 188.7,61.1" style="fill:none;stroke:#727272;stroke-width:2.2px;stroke-linecap:butt;stroke-linejoin:miter;stroke-miterlimit:10;stroke-opacity:1;" />
<path d="M 226.3,112.5 L 228.4,115.4 L 231.4,115.0" style="fill:none;stroke:#727272;stroke-width:2.2px;stroke-linecap:butt;stroke-linejoin:miter;stroke-miterlimit:10;stroke-opacity:1;" />
<path d="M 341.3,54.7 L 343.1,52.5 L 345.8,54.7" style="fill:none;stroke:#727272;stroke-width:2.2px;stroke-linecap:butt;stroke-linejoin:miter;stroke-miterlimit:10;stroke-opacity:1;" />
<path d="M 395.5,94.6 L 398.2,96.9 L 396.0,99.6" style="fill:none;stroke:#727272;stroke-width:2.2px;stroke-linecap:butt;stroke-linejoin:miter;stroke-miterlimit:10;stroke-opacity:1;" />
<path d="M 356.1,149.3 L 353.9,152.0 L 351.6,150.2" style="fill:none;stroke:#727272;stroke-width:2.2px;stroke-linecap:butt;stroke-linejoin:miter;stroke-miterlimit:10;stroke-opacity:1;" />
<path class="atom-0" d="M 51.8 195.5 Q 51.8 190.8, 54.0 188.3 Q 56.2 185.8, 60.5 185.8 Q 64.4 185.8, 66.5 188.6 L 64.7 190.0 Q 63.2 188.0, 60.5 188.0 Q 57.6 188.0, 56.0 189.9 Q 54.5 191.9, 54.5 195.5 Q 54.5 199.3, 56.1 201.3 Q 57.7 203.2, 60.8 203.2 Q 62.9 203.2, 65.3 201.9 L 66.1 204.0 Q 65.1 204.6, 63.6 205.0 Q 62.1 205.4, 60.4 205.4 Q 56.2 205.4, 54.0 202.8 Q 51.8 200.3, 51.8 195.5 " fill="#303030" />
<path class="atom-0" d="M 68.8 188.9 L 75.4 188.9 L 75.4 190.4 L 68.8 190.4 L 68.8 188.9 " fill="#303030" />
<path class="atom-1" d="M 83.5 121.1 L 89.7 131.3 Q 90.3 132.3, 91.3 134.1 Q 92.3 135.9, 92.4 136.0 L 92.4 121.1 L 94.9 121.1 L 94.9 140.3 L 92.3 140.3 L 85.6 129.2 Q 84.8 127.9, 84.0 126.4 Q 83.2 124.9, 82.9 124.5 L 82.9 140.3 L 80.4 140.3 L 80.4 121.1 L 83.5 121.1 " fill="#303030" />
<path class="atom-1" d="M 98.5 124.6 L 101.9 124.6 L 101.9 121.0 L 103.4 121.0 L 103.4 124.6 L 106.8 124.6 L 106.8 125.9 L 103.4 125.9 L 103.4 129.4 L 101.9 129.4 L 101.9 125.9 L 98.5 125.9 L 98.5 124.6 " fill="#303030" />
<path class="atom-6" d="M 294.5 98.1 L 300.8 108.3 Q 301.4 109.3, 302.4 111.1 Q 303.4 112.9, 303.4 113.0 L 303.4 98.1 L 306.0 98.1 L 306.0 117.3 L 303.4 117.3 L 296.6 106.2 Q 295.9 104.9, 295.0 103.4 Q 294.2 101.9, 294.0 101.5 L 294.0 117.3 L 291.5 117.3 L 291.5 98.1 L 294.5 98.1 " fill="#303030" />
</svg><text font-family="Times New Roman, serif" font-size="31" x="18" y="314" fill="#303030">Aldehyde</text><svg version="1.1" baseProfile="full" xml:space="preserve" width="925px" height="215px" viewBox="0 0 925 215" x="10" y="330">

<rect style="opacity:1.0;fill:#FFFFFF;stroke:none" width="925.0" height="215.0" x="0.0" y="0.0"> </rect>
<path class="bond-0 atom-0 atom-1" d="M 39.6,128.2 L 133.9,75.9" style="fill:none;fill-rule:evenodd;stroke:#727272;stroke-width:2.2px;stroke-linecap:butt;stroke-linejoin:miter;stroke-opacity:1" />
<path class="bond-1 atom-1 atom-2" d="M 133.9,75.9 L 226.2,131.5" style="fill:none;fill-rule:evenodd;stroke:#727272;stroke-width:2.2px;stroke-linecap:butt;stroke-linejoin:miter;stroke-opacity:1" />
<path class="bond-2 atom-2 atom-3" d="M 226.2,131.5 L 320.5,79.2" style="fill:none;fill-rule:evenodd;stroke:#727272;stroke-width:2.2px;stroke-linecap:butt;stroke-linejoin:miter;stroke-opacity:1" />
<path class="bond-3 atom-3 atom-4" d="M 320.5,79.2 L 412.8,134.7" style="fill:none;fill-rule:evenodd;stroke:#727272;stroke-width:2.2px;stroke-linecap:butt;stroke-linejoin:miter;stroke-opacity:1" />
<path class="bond-4 atom-4 atom-5" d="M 412.8,134.7 L 507.1,82.5" style="fill:none;fill-rule:evenodd;stroke:#727272;stroke-width:2.2px;stroke-linecap:butt;stroke-linejoin:miter;stroke-opacity:1" />
<path class="bond-5 atom-5 atom-6" d="M 507.1,82.5 L 599.4,138.0" style="fill:none;fill-rule:evenodd;stroke:#727272;stroke-width:2.2px;stroke-linecap:butt;stroke-linejoin:miter;stroke-opacity:1" />
<path class="bond-6 atom-6 atom-7" d="M 599.4,138.0 L 693.7,85.8" style="fill:none;fill-rule:evenodd;stroke:#727272;stroke-width:2.2px;stroke-linecap:butt;stroke-linejoin:miter;stroke-opacity:1" />
<path class="bond-7 atom-7 atom-8" d="M 693.7,85.8 L 786.0,141.3" style="fill:none;fill-rule:evenodd;stroke:#727272;stroke-width:2.2px;stroke-linecap:butt;stroke-linejoin:miter;stroke-opacity:1" />
<path class="bond-8 atom-8 atom-9" d="M 786.0,141.3 L 867.9,96.0" style="fill:none;fill-rule:evenodd;stroke:#727272;stroke-width:2.2px;stroke-linecap:butt;stroke-linejoin:miter;stroke-opacity:1" />
<path class="bond-8 atom-8 atom-9" d="M 786.3,123.9 L 860.6,82.8" style="fill:none;fill-rule:evenodd;stroke:#727272;stroke-width:2.2px;stroke-linecap:butt;stroke-linejoin:miter;stroke-opacity:1" />
<path d="M 129.2,78.5 L 133.9,75.9 L 138.5,78.7" style="fill:none;stroke:#727272;stroke-width:2.2px;stroke-linecap:butt;stroke-linejoin:miter;stroke-miterlimit:10;stroke-opacity:1;" />
<path d="M 221.6,128.7 L 226.2,131.5 L 230.9,128.8" style="fill:none;stroke:#727272;stroke-width:2.2px;stroke-linecap:butt;stroke-linejoin:miter;stroke-miterlimit:10;stroke-opacity:1;" />
<path d="M 315.8,81.8 L 320.5,79.2 L 325.1,82.0" style="fill:none;stroke:#727272;stroke-width:2.2px;stroke-linecap:butt;stroke-linejoin:miter;stroke-miterlimit:10;stroke-opacity:1;" />
<path d="M 408.2,132.0 L 412.8,134.7 L 417.5,132.1" style="fill:none;stroke:#727272;stroke-width:2.2px;stroke-linecap:butt;stroke-linejoin:miter;stroke-miterlimit:10;stroke-opacity:1;" />
<path d="M 502.4,85.1 L 507.1,82.5 L 511.7,85.3" style="fill:none;stroke:#727272;stroke-width:2.2px;stroke-linecap:butt;stroke-linejoin:miter;stroke-miterlimit:10;stroke-opacity:1;" />
<path d="M 594.8,135.3 L 599.4,138.0 L 604.1,135.4" style="fill:none;stroke:#727272;stroke-width:2.2px;stroke-linecap:butt;stroke-linejoin:miter;stroke-miterlimit:10;stroke-opacity:1;" />
<path d="M 689.0,88.4 L 693.7,85.8 L 698.3,88.6" style="fill:none;stroke:#727272;stroke-width:2.2px;stroke-linecap:butt;stroke-linejoin:miter;stroke-miterlimit:10;stroke-opacity:1;" />
<path d="M 781.4,138.6 L 786.0,141.3 L 790.1,139.1" style="fill:none;stroke:#727272;stroke-width:2.2px;stroke-linecap:butt;stroke-linejoin:miter;stroke-miterlimit:10;stroke-opacity:1;" />
<path class="atom-9" d="M 867.8 82.6 Q 867.8 78.0, 870.1 75.4 Q 872.4 72.9, 876.6 72.9 Q 880.8 72.9, 883.1 75.4 Q 885.4 78.0, 885.4 82.6 Q 885.4 87.2, 883.1 89.9 Q 880.8 92.5, 876.6 92.5 Q 872.4 92.5, 870.1 89.9 Q 867.8 87.3, 867.8 82.6 M 876.6 90.3 Q 879.5 90.3, 881.1 88.4 Q 882.7 86.4, 882.7 82.6 Q 882.7 78.8, 881.1 76.9 Q 879.5 75.0, 876.6 75.0 Q 873.7 75.0, 872.1 76.9 Q 870.5 78.8, 870.5 82.6 Q 870.5 86.4, 872.1 88.4 Q 873.7 90.3, 876.6 90.3 " fill="#303030" />
</svg></svg>