<?xml version='1.0' encoding='utf-8'?>
<svg xmlns="http://www.w3.org/2000/svg" version="1.1" baseProfile="full" xml:space="preserve" width="1800px" height="680px" viewBox="0 0 1800 680">

<rect style="opacity:1.0;fill:#FFFFFF;stroke:none" width="1800.0" height="680.0" x="0.0" y="0.0"> </rect>
<path class="bond-0 atom-0 atom-1" d="M 67.7,339.0 L 149.4,392.6" style="fill:none;fill-rule:evenodd;stroke:#727272;stroke-width:4.4px;stroke-linecap:butt;stroke-linejoin:miter;stroke-opacity:1" />
<path class="bond-1 atom-1 atom-2" d="M 149.4,392.6 L 236.7,348.6" style="fill:none;fill-rule:evenodd;stroke:#727272;stroke-width:4.4px;stroke-linecap:butt;stroke-linejoin:miter;stroke-opacity:1" />
<path class="bond-2 atom-2 atom-3" d="M 236.7,348.6 L 318.4,402.2" style="fill:none;fill-rule:evenodd;stroke:#727272;stroke-width:4.4px;stroke-linecap:butt;stroke-linejoin:miter;stroke-opacity:1" />
<path class="bond-3 atom-3 atom-4" d="M 318.4,402.2 L 405.7,358.2" style="fill:none;fill-rule:evenodd;stroke:#727272;stroke-width:4.4px;stroke-linecap:butt;stroke-linejoin:miter;stroke-opacity:1" />
<path class="bond-4 atom-4 atom-5" d="M 405.7,358.2 L 487.4,411.8" style="fill:none;fill-rule:evenodd;stroke:#727272;stroke-width:4.4px;stroke-linecap:butt;stroke-linejoin:miter;stroke-opacity:1" />
<path class="bond-5 atom-5 atom-6" d="M 487.4,411.8 L 574.7,367.9" style="fill:none;fill-rule:evenodd;stroke:#727272;stroke-width:4.4px;stroke-linecap:butt;stroke-linejoin:miter;stroke-opacity:1" />
<path class="bond-6 atom-6 atom-7" d="M 574.7,367.9 L 656.4,421.5" style="fill:none;fill-rule:evenodd;stroke:#727272;stroke-width:4.4px;stroke-linecap:butt;stroke-linejoin:miter;stroke-opacity:1" />
<path class="bond-7 atom-7 atom-8" d="M 656.4,421.5 L 743.7,377.5" style="fill:none;fill-rule:evenodd;stroke:#727272;stroke-width:4.4px;stroke-linecap:butt;stroke-linejoin:miter;stroke-opacity:1" />
<path class="bond-8 atom-8 atom-9" d="M 743.7,377.5 L 825.4,431.1" style="fill:none;fill-rule:evenodd;stroke:#727272;stroke-width:4.4px;stroke-linecap:butt;stroke-linejoin:miter;stroke-opacity:1" />
<path class="bond-9 atom-9 atom-10" d="M 818.8,426.8 L 814.2,507.9" style="fill:none;fill-rule:evenodd;stroke:#727272;stroke-width:4.4px;stroke-linecap:butt;stroke-linejoin:miter;stroke-opacity:1" />
<path class="bond-9 atom-9 atom-10" d="M 832.4,427.6 L 827.8,508.7" style="fill:none;fill-rule:evenodd;stroke:#727272;stroke-width:4.4px;stroke-linecap:butt;stroke-linejoin:miter;stroke-opacity:1" />
<path class="bond-10 atom-9 atom-11" d="M 825.4,431.1 L 893.8,396.6" style="fill:none;fill-rule:evenodd;stroke:#727272;stroke-width:4.4px;stroke-linecap:butt;stroke-linejoin:miter;stroke-opacity:1" />
<path class="bond-11 atom-11 atom-12" d="M 931.5,399.5 L 994.4,440.8" style="fill:none;fill-rule:evenodd;stroke:#727272;stroke-width:4.4px;stroke-linecap:butt;stroke-linejoin:miter;stroke-opacity:1" />
<path class="bond-12 atom-12 atom-13" d="M 994.4,440.8 L 1081.7,396.8" style="fill:none;fill-rule:evenodd;stroke:#727272;stroke-width:4.4px;stroke-linecap:butt;stroke-linejoin:miter;stroke-opacity:1" />
<path class="bond-13 atom-13 atom-14" d="M 1081.7,396.8 L 1163.4,450.4" style="fill:none;fill-rule:evenodd;stroke:#727272;stroke-width:4.4px;stroke-linecap:butt;stroke-linejoin:miter;stroke-opacity:1" />
<path class="bond-14 atom-14 atom-15" d="M 1163.4,450.4 L 1250.6,406.4" style="fill:none;fill-rule:evenodd;stroke:#727272;stroke-width:4.4px;stroke-linecap:butt;stroke-linejoin:miter;stroke-opacity:1" />
<path class="bond-15 atom-15 atom-16" d="M 1250.6,406.4 L 1255.1,329.1" style="fill:none;fill-rule:evenodd;stroke:#727272;stroke-width:4.4px;stroke-linecap:butt;stroke-linejoin:miter;stroke-opacity:1" />
<path class="bond-16 atom-16 atom-17" d="M 1240.1,298.3 L 1174.5,255.3" style="fill:none;fill-rule:evenodd;stroke:#727272;stroke-width:4.4px;stroke-linecap:butt;stroke-linejoin:miter;stroke-opacity:1" />
<path class="bond-17 atom-17 atom-18" d="M 1174.5,255.3 L 1087.2,299.2" style="fill:none;fill-rule:evenodd;stroke:#727272;stroke-width:4.4px;stroke-linecap:butt;stroke-linejoin:miter;stroke-opacity:1" />
<path class="bond-18 atom-17 atom-19" d="M 1174.5,255.3 L 1180.1,157.7" style="fill:none;fill-rule:evenodd;stroke:#727272;stroke-width:4.4px;stroke-linecap:butt;stroke-linejoin:miter;stroke-opacity:1" />
<path class="bond-19 atom-19 atom-20" d="M 1180.1,157.7 L 1098.3,104.1" style="fill:none;fill-rule:evenodd;stroke:#727272;stroke-width:4.4px;stroke-linecap:butt;stroke-linejoin:miter;stroke-opacity:1" />
<path class="bond-20 atom-19 atom-21" d="M 1180.1,157.7 L 1267.3,113.7" style="fill:none;fill-rule:evenodd;stroke:#727272;stroke-width:4.4px;stroke-linecap:butt;stroke-linejoin:miter;stroke-opacity:1" />
<path class="bond-21 atom-15 atom-22" d="M 1250.6,406.4 L 1332.4,460.0" style="fill:none;fill-rule:evenodd;stroke:#727272;stroke-width:4.4px;stroke-linecap:butt;stroke-linejoin:miter;stroke-opacity:1" />
<path class="bond-22 atom-22 atom-23" d="M 1325.8,455.7 L 1321.1,536.8" style="fill:none;fill-rule:evenodd;stroke:#727272;stroke-width:4.4px;stroke-linecap:butt;stroke-linejoin:miter;stroke-opacity:1" />
<path class="bond-22 atom-22 atom-23" d="M 1339.4,456.5 L 1334.8,537.6" style="fill:none;fill-rule:evenodd;stroke:#727272;stroke-width:4.4px;stroke-linecap:butt;stroke-linejoin:miter;stroke-opacity:1" />
<path class="bond-23 atom-22 atom-24" d="M 1332.4,460.0 L 1403.5,424.2" style="fill:none;fill-rule:evenodd;stroke:#727272;stroke-width:4.4px;stroke-linecap:butt;stroke-linejoin:miter;stroke-opacity:1" />
<path class="bond-24 atom-24 atom-25" d="M 1435.8,426.6 L 1501.4,469.7" style="fill:none;fill-rule:evenodd;stroke:#727272;stroke-width:4.4px;stroke-linecap:butt;stroke-linejoin:miter;stroke-opacity:1" />
<path class="bond-25 atom-25 atom-26" d="M 1501.4,469.7 L 1588.6,425.7" style="fill:none;fill-rule:evenodd;stroke:#727272;stroke-width:4.4px;stroke-linecap:butt;stroke-linejoin:miter;stroke-opacity:1" />
<path class="bond-26 atom-26 atom-27" d="M 1588.6,425.7 L 1670.1,430.3" style="fill:none;fill-rule:evenodd;stroke:#727272;stroke-width:4.4px;stroke-linecap:butt;stroke-linejoin:miter;stroke-opacity:1" />
<path class="bond-27 atom-27 atom-28" d="M 1676.0,411.0 L 1652.4,364.2" style="fill:none;fill-rule:evenodd;stroke:#727272;stroke-width:4.4px;stroke-linecap:butt;stroke-linejoin:miter;stroke-opacity:1" />
<path class="bond-28 atom-28 atom-26" d="M 1629.0,364.2 L 1588.6,425.7" style="fill:none;fill-rule:evenodd;stroke:#727272;stroke-width:4.4px;stroke-linecap:butt;stroke-linejoin:miter;stroke-opacity:1" />
<path d="M 145.4,389.9 L 149.4,392.6 L 153.8,390.4" style="fill:none;stroke:#727272;stroke-width:4.4px;stroke-linecap:butt;stroke-linejoin:miter;stroke-miterlimit:10;stroke-opacity:1;" />
<path d="M 232.3,350.8 L 236.7,348.6 L 240.8,351.3" style="fill:none;stroke:#727272;stroke-width:4.4px;stroke-linecap:butt;stroke-linejoin:miter;stroke-miterlimit:10;stroke-opacity:1;" />
<path d="M 314.3,399.5 L 318.4,402.2 L 322.8,400.0" style="fill:none;stroke:#727272;stroke-width:4.4px;stroke-linecap:butt;stroke-linejoin:miter;stroke-miterlimit:10;stroke-opacity:1;" />
<path d="M 401.3,360.4 L 405.7,358.2 L 409.8,360.9" style="fill:none;stroke:#727272;stroke-width:4.4px;stroke-linecap:butt;stroke-linejoin:miter;stroke-miterlimit:10;stroke-opacity:1;" />
<path d="M 483.3,409.2 L 487.4,411.8 L 491.8,409.7" style="fill:none;stroke:#727272;stroke-width:4.4px;stroke-linecap:butt;stroke-linejoin:miter;stroke-miterlimit:10;stroke-opacity:1;" />
<path d="M 570.3,370.1 L 574.7,367.9 L 578.8,370.6" style="fill:none;stroke:#727272;stroke-width:4.4px;stroke-linecap:butt;stroke-linejoin:miter;stroke-miterlimit:10;stroke-opacity:1;" />
<path d="M 652.3,418.8 L 656.4,421.5 L 660.8,419.3" style="fill:none;stroke:#727272;stroke-width:4.4px;stroke-linecap:butt;stroke-linejoin:miter;stroke-miterlimit:10;stroke-opacity:1;" />
<path d="M 739.3,379.7 L 743.7,377.5 L 747.8,380.2" style="fill:none;stroke:#727272;stroke-width:4.4px;stroke-linecap:butt;stroke-linejoin:miter;stroke-miterlimit:10;stroke-opacity:1;" />
<path d="M 821.3,428.4 L 825.4,431.1 L 828.8,429.4" style="fill:none;stroke:#727272;stroke-width:4.4px;stroke-linecap:butt;stroke-linejoin:miter;stroke-miterlimit:10;stroke-opacity:1;" />
<path d="M 991.2,438.7 L 994.4,440.8 L 998.7,438.6" style="fill:none;stroke:#727272;stroke-width:4.4px;stroke-linecap:butt;stroke-linejoin:miter;stroke-miterlimit:10;stroke-opacity:1;" />
<path d="M 1077.3,399.0 L 1081.7,396.8 L 1085.7,399.5" style="fill:none;stroke:#727272;stroke-width:4.4px;stroke-linecap:butt;stroke-linejoin:miter;stroke-miterlimit:10;stroke-opacity:1;" />
<path d="M 1159.3,447.7 L 1163.4,450.4 L 1167.7,448.2" style="fill:none;stroke:#727272;stroke-width:4.4px;stroke-linecap:butt;stroke-linejoin:miter;stroke-miterlimit:10;stroke-opacity:1;" />
<path d="M 1328.3,457.3 L 1332.4,460.0 L 1335.9,458.2" style="fill:none;stroke:#727272;stroke-width:4.4px;stroke-linecap:butt;stroke-linejoin:miter;stroke-miterlimit:10;stroke-opacity:1;" />
<path d="M 1498.1,467.5 L 1501.4,469.7 L 1505.7,467.5" style="fill:none;stroke:#727272;stroke-width:4.4px;stroke-linecap:butt;stroke-linejoin:miter;stroke-miterlimit:10;stroke-opacity:1;" />
<path class="atom-10" d="M 804.2 528.8 Q 804.2 520.6, 808.3 516.1 Q 812.3 511.5, 819.8 511.5 Q 827.4 511.5, 831.4 516.1 Q 835.4 520.6, 835.4 528.8 Q 835.4 537.0, 831.4 541.7 Q 827.3 546.4, 819.8 546.4 Q 812.3 546.4, 808.3 541.7 Q 804.2 537.1, 804.2 528.8 M 819.8 542.6 Q 825.0 542.6, 827.8 539.1 Q 830.6 535.6, 830.6 528.8 Q 830.6 522.1, 827.8 518.8 Q 825.0 515.3, 819.8 515.3 Q 814.6 515.3, 811.8 518.7 Q 809.0 522.1, 809.0 528.8 Q 809.0 535.6, 811.8 539.1 Q 814.6 542.6, 819.8 542.6 " fill="#303030" />
<path class="atom-11" d="M 897.1 387.3 Q 897.1 379.1, 901.1 374.5 Q 905.1 370.0, 912.7 370.0 Q 920.2 370.0, 924.2 374.5 Q 928.3 379.1, 928.3 387.3 Q 928.3 395.5, 924.2 400.2 Q 920.1 404.9, 912.7 404.9 Q 905.2 404.9, 901.1 400.2 Q 897.1 395.6, 897.1 387.3 M 912.7 401.0 Q 917.9 401.0, 920.6 397.6 Q 923.5 394.1, 923.5 387.3 Q 923.5 380.6, 920.6 377.2 Q 917.9 373.8, 912.7 373.8 Q 907.5 373.8, 904.7 377.2 Q 901.9 380.5, 901.9 387.3 Q 901.9 394.1, 904.7 397.6 Q 907.5 401.0, 912.7 401.0 " fill="#303030" />
<path class="atom-16" d="M 1248.7 291.9 L 1259.8 309.9 Q 1260.9 311.6, 1262.7 314.9 Q 1264.5 318.1, 1264.6 318.3 L 1264.6 291.9 L 1269.1 291.9 L 1269.1 325.9 L 1264.4 325.9 L 1252.5 306.2 Q 1251.1 303.9, 1249.6 301.2 Q 1248.2 298.6, 1247.7 297.8 L 1247.7 325.9 L 1243.3 325.9 L 1243.3 291.9 L 1248.7 291.9 " fill="#303030" />
<path class="atom-16" d="M 1275.7 291.9 L 1280.3 291.9 L 1280.3 306.3 L 1297.7 306.3 L 1297.7 291.9 L 1302.3 291.9 L 1302.3 325.9 L 1297.7 325.9 L 1297.7 310.2 L 1280.3 310.2 L 1280.3 325.9 L 1275.7 325.9 L 1275.7 291.9 " fill="#303030" />
<path class="atom-23" d="M 1311.2 557.7 Q 1311.2 549.5, 1315.2 545.0 Q 1319.3 540.4, 1326.8 540.4 Q 1334.3 540.4, 1338.4 545.0 Q 1342.4 549.5, 1342.4 557.7 Q 1342.4 565.9, 1338.3 570.7 Q 1334.2 575.3, 1326.8 575.3 Q 1319.3 575.3, 1315.2 570.7 Q 1311.2 566.0, 1311.2 557.7 M 1326.8 571.5 Q 1332.0 571.5, 1334.8 568.0 Q 1337.6 564.5, 1337.6 557.7 Q 1337.6 551.0, 1334.8 547.7 Q 1332.0 544.3, 1326.8 544.3 Q 1321.6 544.3, 1318.8 547.6 Q 1316.0 551.0, 1316.0 557.7 Q 1316.0 564.6, 1318.8 568.0 Q 1321.6 571.5, 1326.8 571.5 " fill="#303030" />
<path class="atom-24" d="M 1412.1 399.1 L 1423.3 417.1 Q 1424.4 418.8, 1426.1 422.1 Q 1427.9 425.3, 1428.0 425.5 L 1428.0 399.1 L 1432.5 399.1 L 1432.5 433.1 L 1427.9 433.1 L 1415.9 413.4 Q 1414.5 411.1, 1413.0 408.4 Q 1411.6 405.8, 1411.2 405.0 L 1411.2 433.1 L 1406.8 433.1 L 1406.8 399.1 L 1412.1 399.1 " fill="#303030" />
<path class="atom-24" d="M 1406.3 361.7 L 1411.0 361.7 L 1411.0 376.1 L 1428.3 376.1 L 1428.3 361.7 L 1432.9 361.7 L 1432.9 395.7 L 1428.3 395.7 L 1428.3 380.0 L 1411.0 380.0 L 1411.0 395.7 L 1406.3 395.7 L 1406.3 361.7 " fill="#303030" />
<path class="atom-27" d="M 1678.7 414.3 L 1689.8 432.3 Q 1690.9 434.0, 1692.7 437.3 Q 1694.5 440.5, 1694.6 440.7 L 1694.6 414.3 L 1699.1 414.3 L 1699.1 448.3 L 1694.4 448.3 L 1682.5 428.6 Q 1681.1 426.3, 1679.6 423.6 Q 1678.2 421.0, 1677.7 420.2 L 1677.7 448.3 L 1673.3 448.3 L 1673.3 414.3 L 1678.7 414.3 " fill="#303030" />
<path class="atom-27" d="M 1705.7 414.3 L 1710.3 414.3 L 1710.3 428.7 L 1727.7 428.7 L 1727.7 414.3 L 1732.3 414.3 L 1732.3 448.3 L 1727.7 448.3 L 1727.7 432.6 L 1710.3 432.6 L 1710.3 448.3 L 1705.7 448.3 L 1705.7 414.3 " fill="#303030" />
<path class="atom-28" d="M 1634.7 327.0 L 1645.9 345.0 Q 1647.0 346.8, 1648.7 350.0 Q 1650.5 353.2, 1650.6 353.4 L 1650.6 327.0 L 1655.1 327.0 L 1655.1 361.0 L 1650.5 361.0 L 1638.5 341.3 Q 1637.1 339.0, 1635.6 336.4 Q 1634.2 333.7, 1633.8 332.9 L 1633.8 361.0 L 1629.3 361.0 L 1629.3 327.0 L 1634.7 327.0 " fill="#303030" />
<path class="atom-28" d="M 1628.9 289.6 L 1633.5 289.6 L 1633.5 304.1 L 1650.9 304.1 L 1650.9 289.6 L 1655.5 289.6 L 1655.5 323.6 L 1650.9 323.6 L 1650.9 307.9 L 1633.5 307.9 L 1633.5 323.6 L 1628.9 323.6 L 1628.9 289.6 " fill="#303030" />
</svg>