<?xml version='1.0' encoding='utf-8'?>
<svg xmlns="http://www.w3.org/2000/svg" width="900" height="560" viewBox="0 0 900 560"><rect width="100%" height="100%" fill="white" /><text font-family="Times New Roman, serif" font-size="34" x="18" y="44" fill="#303030">FORGE-Ugi-1763</text><svg version="1.1" baseProfile="full" xml:space="preserve" width="880px" height="470px" viewBox="0 0 880 470" x="10" y="80">

<rect style="opacity:1.0;fill:#FFFFFF;stroke:none" width="880.0" height="470.0" x="0.0" y="0.0"> </rect>
<path class="bond-0 atom-0 atom-1" d="M 47.8,452.0 L 69.4,392.7" style="fill:none;fill-rule:evenodd;stroke:#727272;stroke-width:2.2px;stroke-linecap:butt;stroke-linejoin:miter;stroke-opacity:1" />
<path class="bond-1 atom-1 atom-2" d="M 69.4,392.7 L 131.6,381.8" style="fill:none;fill-rule:evenodd;stroke:#727272;stroke-width:2.2px;stroke-linecap:butt;stroke-linejoin:miter;stroke-opacity:1" />
<path class="bond-2 atom-2 atom-3" d="M 131.6,381.8 L 153.2,322.5" style="fill:none;fill-rule:evenodd;stroke:#727272;stroke-width:2.2px;stroke-linecap:butt;stroke-linejoin:miter;stroke-opacity:1" />
<path class="bond-3 atom-3 atom-4" d="M 153.2,322.5 L 215.4,311.5" style="fill:none;fill-rule:evenodd;stroke:#727272;stroke-width:2.2px;stroke-linecap:butt;stroke-linejoin:miter;stroke-opacity:1" />
<path class="bond-4 atom-4 atom-5" d="M 215.4,311.5 L 237.0,252.2" style="fill:none;fill-rule:evenodd;stroke:#727272;stroke-width:2.2px;stroke-linecap:butt;stroke-linejoin:miter;stroke-opacity:1" />
<path class="bond-5 atom-5 atom-6" d="M 237.0,252.2 L 299.2,241.3" style="fill:none;fill-rule:evenodd;stroke:#727272;stroke-width:2.2px;stroke-linecap:butt;stroke-linejoin:miter;stroke-opacity:1" />
<path class="bond-6 atom-6 atom-7" d="M 299.2,241.3 L 288.3,179.1" style="fill:none;fill-rule:evenodd;stroke:#727272;stroke-width:2.2px;stroke-linecap:butt;stroke-linejoin:miter;stroke-opacity:1" />
<path class="bond-7 atom-6 atom-8" d="M 299.2,241.3 L 310.1,303.5" style="fill:none;fill-rule:evenodd;stroke:#727272;stroke-width:2.2px;stroke-linecap:butt;stroke-linejoin:miter;stroke-opacity:1" />
<path class="bond-8 atom-6 atom-9" d="M 299.2,241.3 L 361.4,230.4" style="fill:none;fill-rule:evenodd;stroke:#727272;stroke-width:2.2px;stroke-linecap:butt;stroke-linejoin:miter;stroke-opacity:1" />
<path class="bond-9 atom-9 atom-10" d="M 361.4,230.4 L 401.9,278.7" style="fill:none;fill-rule:evenodd;stroke:#727272;stroke-width:2.2px;stroke-linecap:butt;stroke-linejoin:miter;stroke-opacity:1" />
<path class="bond-10 atom-10 atom-11" d="M 398.6,274.8 L 381.1,323.0" style="fill:none;fill-rule:evenodd;stroke:#727272;stroke-width:2.2px;stroke-linecap:butt;stroke-linejoin:miter;stroke-opacity:1" />
<path class="bond-10 atom-10 atom-11" d="M 406.9,277.8 L 389.4,326.0" style="fill:none;fill-rule:evenodd;stroke:#727272;stroke-width:2.2px;stroke-linecap:butt;stroke-linejoin:miter;stroke-opacity:1" />
<path class="bond-11 atom-10 atom-12" d="M 401.9,278.7 L 453.4,269.7" style="fill:none;fill-rule:evenodd;stroke:#727272;stroke-width:2.2px;stroke-linecap:butt;stroke-linejoin:miter;stroke-opacity:1" />
<path class="bond-12 atom-12 atom-13" d="M 475.3,281.2 L 504.6,316.2" style="fill:none;fill-rule:evenodd;stroke:#727272;stroke-width:2.2px;stroke-linecap:butt;stroke-linejoin:miter;stroke-opacity:1" />
<path class="bond-13 atom-13 atom-14" d="M 504.6,316.2 L 566.8,305.2" style="fill:none;fill-rule:evenodd;stroke:#727272;stroke-width:2.2px;stroke-linecap:butt;stroke-linejoin:miter;stroke-opacity:1" />
<path class="bond-14 atom-14 atom-15" d="M 566.8,305.2 L 607.4,353.6" style="fill:none;fill-rule:evenodd;stroke:#727272;stroke-width:2.2px;stroke-linecap:butt;stroke-linejoin:miter;stroke-opacity:1" />
<path class="bond-15 atom-15 atom-16" d="M 607.4,353.6 L 669.5,342.7" style="fill:none;fill-rule:evenodd;stroke:#727272;stroke-width:2.2px;stroke-linecap:butt;stroke-linejoin:miter;stroke-opacity:1" />
<path class="bond-16 atom-16 atom-17" d="M 669.5,342.7 L 710.1,391.1" style="fill:none;fill-rule:evenodd;stroke:#727272;stroke-width:2.2px;stroke-linecap:butt;stroke-linejoin:miter;stroke-opacity:1" />
<path class="bond-17 atom-17 atom-18" d="M 710.1,391.1 L 772.3,380.1" style="fill:none;fill-rule:evenodd;stroke:#727272;stroke-width:2.2px;stroke-linecap:butt;stroke-linejoin:miter;stroke-opacity:1" />
<path class="bond-18 atom-18 atom-19" d="M 772.3,380.1 L 831.6,401.8" style="fill:none;fill-rule:evenodd;stroke:#727272;stroke-width:2.2px;stroke-linecap:butt;stroke-linejoin:miter;stroke-opacity:1" />
<path class="bond-19 atom-19 atom-20" d="M 831.6,401.8 L 823.1,353.5" style="fill:none;fill-rule:evenodd;stroke:#727272;stroke-width:2.2px;stroke-linecap:butt;stroke-linejoin:miter;stroke-opacity:1" />
<path class="bond-20 atom-9 atom-21" d="M 361.4,230.4 L 378.1,184.5" style="fill:none;fill-rule:evenodd;stroke:#727272;stroke-width:2.2px;stroke-linecap:butt;stroke-linejoin:miter;stroke-opacity:1" />
<path class="bond-21 atom-21 atom-22" d="M 372.3,158.3 L 342.4,122.7" style="fill:none;fill-rule:evenodd;stroke:#727272;stroke-width:2.2px;stroke-linecap:butt;stroke-linejoin:miter;stroke-opacity:1" />
<path class="bond-22 atom-21 atom-23" d="M 393.7,169.2 L 445.2,160.1" style="fill:none;fill-rule:evenodd;stroke:#727272;stroke-width:2.2px;stroke-linecap:butt;stroke-linejoin:miter;stroke-opacity:1" />
<path class="bond-23 atom-23 atom-24" d="M 445.2,160.1 L 466.8,100.8" style="fill:none;fill-rule:evenodd;stroke:#727272;stroke-width:2.2px;stroke-linecap:butt;stroke-linejoin:miter;stroke-opacity:1" />
<path class="bond-24 atom-24 atom-25" d="M 466.8,100.8 L 529.0,89.9" style="fill:none;fill-rule:evenodd;stroke:#727272;stroke-width:2.2px;stroke-linecap:butt;stroke-linejoin:miter;stroke-opacity:1" />
<path class="bond-25 atom-25 atom-26" d="M 529.0,89.9 L 545.5,44.5" style="fill:none;fill-rule:evenodd;stroke:#727272;stroke-width:2.2px;stroke-linecap:butt;stroke-linejoin:miter;stroke-opacity:1" />
<path class="bond-25 atom-25 atom-26" d="M 522.4,82.1 L 537.2,41.4" style="fill:none;fill-rule:evenodd;stroke:#727272;stroke-width:2.2px;stroke-linecap:butt;stroke-linejoin:miter;stroke-opacity:1" />
<path class="bond-26 atom-20 atom-18" d="M 808.2,350.0 L 772.3,380.1" style="fill:none;fill-rule:evenodd;stroke:#727272;stroke-width:2.2px;stroke-linecap:butt;stroke-linejoin:miter;stroke-opacity:1" />
<path d="M 68.4,395.7 L 69.4,392.7 L 72.5,392.2" style="fill:none;stroke:#727272;stroke-width:2.2px;stroke-linecap:butt;stroke-linejoin:miter;stroke-miterlimit:10;stroke-opacity:1;" />
<path d="M 128.5,382.3 L 131.6,381.8 L 132.7,378.8" style="fill:none;stroke:#727272;stroke-width:2.2px;stroke-linecap:butt;stroke-linejoin:miter;stroke-miterlimit:10;stroke-opacity:1;" />
<path d="M 152.1,325.4 L 153.2,322.5 L 156.3,321.9" style="fill:none;stroke:#727272;stroke-width:2.2px;stroke-linecap:butt;stroke-linejoin:miter;stroke-miterlimit:10;stroke-opacity:1;" />
<path d="M 212.3,312.1 L 215.4,311.5 L 216.5,308.6" style="fill:none;stroke:#727272;stroke-width:2.2px;stroke-linecap:butt;stroke-linejoin:miter;stroke-miterlimit:10;stroke-opacity:1;" />
<path d="M 235.9,255.2 L 237.0,252.2 L 240.1,251.7" style="fill:none;stroke:#727272;stroke-width:2.2px;stroke-linecap:butt;stroke-linejoin:miter;stroke-miterlimit:10;stroke-opacity:1;" />
<path d="M 399.9,276.3 L 401.9,278.7 L 404.5,278.3" style="fill:none;stroke:#727272;stroke-width:2.2px;stroke-linecap:butt;stroke-linejoin:miter;stroke-miterlimit:10;stroke-opacity:1;" />
<path d="M 503.2,314.4 L 504.6,316.2 L 507.8,315.6" style="fill:none;stroke:#727272;stroke-width:2.2px;stroke-linecap:butt;stroke-linejoin:miter;stroke-miterlimit:10;stroke-opacity:1;" />
<path d="M 563.7,305.8 L 566.8,305.2 L 568.8,307.7" style="fill:none;stroke:#727272;stroke-width:2.2px;stroke-linecap:butt;stroke-linejoin:miter;stroke-miterlimit:10;stroke-opacity:1;" />
<path d="M 605.3,351.2 L 607.4,353.6 L 610.5,353.1" style="fill:none;stroke:#727272;stroke-width:2.2px;stroke-linecap:butt;stroke-linejoin:miter;stroke-miterlimit:10;stroke-opacity:1;" />
<path d="M 666.4,343.2 L 669.5,342.7 L 671.6,345.1" style="fill:none;stroke:#727272;stroke-width:2.2px;stroke-linecap:butt;stroke-linejoin:miter;stroke-miterlimit:10;stroke-opacity:1;" />
<path d="M 708.1,388.7 L 710.1,391.1 L 713.2,390.5" style="fill:none;stroke:#727272;stroke-width:2.2px;stroke-linecap:butt;stroke-linejoin:miter;stroke-miterlimit:10;stroke-opacity:1;" />
<path d="M 828.6,400.7 L 831.6,401.8 L 831.2,399.3" style="fill:none;stroke:#727272;stroke-width:2.2px;stroke-linecap:butt;stroke-linejoin:miter;stroke-miterlimit:10;stroke-opacity:1;" />
<path d="M 442.6,160.6 L 445.2,160.1 L 446.2,157.1" style="fill:none;stroke:#727272;stroke-width:2.2px;stroke-linecap:butt;stroke-linejoin:miter;stroke-miterlimit:10;stroke-opacity:1;" />
<path d="M 465.7,103.8 L 466.8,100.8 L 469.9,100.3" style="fill:none;stroke:#727272;stroke-width:2.2px;stroke-linecap:butt;stroke-linejoin:miter;stroke-miterlimit:10;stroke-opacity:1;" />
<path d="M 525.8,90.4 L 529.0,89.9 L 529.8,87.6" style="fill:none;stroke:#727272;stroke-width:2.2px;stroke-linecap:butt;stroke-linejoin:miter;stroke-miterlimit:10;stroke-opacity:1;" />
<path class="atom-11" d="M 369.9 338.1 Q 369.9 332.7, 372.6 329.6 Q 375.3 326.6, 380.3 326.6 Q 385.3 326.6, 388.0 329.6 Q 390.7 332.7, 390.7 338.1 Q 390.7 343.6, 388.0 346.7 Q 385.3 349.8, 380.3 349.8 Q 375.3 349.8, 372.6 346.7 Q 369.9 343.6, 369.9 338.1 M 380.3 347.3 Q 383.8 347.3, 385.6 345.0 Q 387.5 342.6, 387.5 338.1 Q 387.5 333.7, 385.6 331.4 Q 383.8 329.1, 380.3 329.1 Q 376.8 329.1, 375.0 331.4 Q 373.1 333.6, 373.1 338.1 Q 373.1 342.7, 375.0 345.0 Q 376.8 347.3, 380.3 347.3 " fill="#303030" />
<path class="atom-12" d="M 459.1 256.5 L 466.5 268.5 Q 467.2 269.7, 468.4 271.8 Q 469.6 273.9, 469.7 274.1 L 469.7 256.5 L 472.7 256.5 L 472.7 279.1 L 469.6 279.1 L 461.6 266.0 Q 460.7 264.5, 459.7 262.7 Q 458.7 261.0, 458.4 260.4 L 458.4 279.1 L 455.5 279.1 L 455.5 256.5 L 459.1 256.5 " fill="#303030" />
<path class="atom-12" d="M 477.1 256.5 L 480.2 256.5 L 480.2 266.1 L 491.7 266.1 L 491.7 256.5 L 494.8 256.5 L 494.8 279.1 L 491.7 279.1 L 491.7 268.7 L 480.2 268.7 L 480.2 279.1 L 477.1 279.1 L 477.1 256.5 " fill="#303030" />
<path class="atom-20" d="M 810.3 339.6 Q 810.3 334.2, 812.9 331.2 Q 815.6 328.1, 820.7 328.1 Q 825.7 328.1, 828.4 331.2 Q 831.1 334.2, 831.1 339.6 Q 831.1 345.2, 828.3 348.3 Q 825.6 351.4, 820.7 351.4 Q 815.7 351.4, 812.9 348.3 Q 810.3 345.2, 810.3 339.6 M 820.7 348.8 Q 824.1 348.8, 826.0 346.5 Q 827.9 344.2, 827.9 339.6 Q 827.9 335.2, 826.0 333.0 Q 824.1 330.7, 820.7 330.7 Q 817.2 330.7, 815.3 332.9 Q 813.5 335.2, 813.5 339.6 Q 813.5 344.2, 815.3 346.5 Q 817.2 348.8, 820.7 348.8 " fill="#303030" />
<path class="atom-21" d="M 378.0 159.7 L 385.4 171.7 Q 386.1 172.9, 387.3 175.0 Q 388.5 177.2, 388.6 177.3 L 388.6 159.7 L 391.6 159.7 L 391.6 182.4 L 388.5 182.4 L 380.5 169.3 Q 379.6 167.7, 378.6 166.0 Q 377.6 164.2, 377.3 163.7 L 377.3 182.4 L 374.4 182.4 L 374.4 159.7 L 378.0 159.7 " fill="#303030" />
<path class="atom-26" d="M 536.0 29.1 Q 536.0 23.7, 538.7 20.6 Q 541.4 17.6, 546.4 17.6 Q 551.4 17.6, 554.1 20.6 Q 556.8 23.7, 556.8 29.1 Q 556.8 34.6, 554.1 37.8 Q 551.4 40.9, 546.4 40.9 Q 541.4 40.9, 538.7 37.8 Q 536.0 34.6, 536.0 29.1 M 546.4 38.3 Q 549.9 38.3, 551.7 36.0 Q 553.6 33.7, 553.6 29.1 Q 553.6 24.7, 551.7 22.4 Q 549.9 20.2, 546.4 20.2 Q 543.0 20.2, 541.1 22.4 Q 539.2 24.6, 539.2 29.1 Q 539.2 33.7, 541.1 36.0 Q 543.0 38.3, 546.4 38.3 " fill="#303030" />
</svg></svg>